<mxfile host="app.diagrams.net" modified="2020-10-29T03:09:12.409Z" agent="5.0 (Windows NT 10.0; Win64; x64) AppleWebKit/537.36 (KHTML, like Gecko) Chrome/86.0.4240.111 Safari/537.36" etag="WcX9onnZD-1gIStpgifD" version="13.8.6" type="github">
  <diagram id="ICChDU_bYFe73pkxosna" name="Page-1">
    <mxGraphModel dx="1296" dy="685" grid="1" gridSize="10" guides="1" tooltips="1" connect="1" arrows="1" fold="1" page="1" pageScale="1" pageWidth="827" pageHeight="1169" math="0" shadow="0">
      <root>
        <mxCell id="0" />
        <mxCell id="1" parent="0" />
        <mxCell id="WcU06nX2nmiv20t1e_cT-12" style="edgeStyle=orthogonalEdgeStyle;rounded=0;orthogonalLoop=1;jettySize=auto;html=1;exitX=0.5;exitY=1;exitDx=0;exitDy=0;fontSize=16;" parent="1" source="WcU06nX2nmiv20t1e_cT-4" target="WcU06nX2nmiv20t1e_cT-11" edge="1">
          <mxGeometry relative="1" as="geometry" />
        </mxCell>
        <mxCell id="WcU06nX2nmiv20t1e_cT-4" value="PROSPECT+SAIL(+6S)辐射传输模型模拟植被冠层反射光谱" style="rounded=0;whiteSpace=wrap;html=1;fillColor=#dae8fc;strokeColor=#6c8ebf;fontSize=16;" parent="1" vertex="1">
          <mxGeometry x="230" y="120" width="500" height="40" as="geometry" />
        </mxCell>
        <mxCell id="WcU06nX2nmiv20t1e_cT-5" value="叶片生理生化组分" style="rounded=1;whiteSpace=wrap;html=1;fontSize=16;fillColor=#dae8fc;strokeColor=#6c8ebf;dashed=1;" parent="1" vertex="1">
          <mxGeometry x="230" y="70" width="140" height="40" as="geometry" />
        </mxCell>
        <mxCell id="WcU06nX2nmiv20t1e_cT-6" value="冠层结构" style="rounded=1;whiteSpace=wrap;html=1;fontSize=16;fillColor=#dae8fc;strokeColor=#6c8ebf;dashed=1;" parent="1" vertex="1">
          <mxGeometry x="380" y="70" width="80" height="40" as="geometry" />
        </mxCell>
        <mxCell id="WcU06nX2nmiv20t1e_cT-7" value="环境背景" style="rounded=1;whiteSpace=wrap;html=1;fontSize=16;fillColor=#dae8fc;strokeColor=#6c8ebf;dashed=1;" parent="1" vertex="1">
          <mxGeometry x="470" y="70" width="80" height="40" as="geometry" />
        </mxCell>
        <mxCell id="WcU06nX2nmiv20t1e_cT-8" value="观测几何" style="rounded=1;whiteSpace=wrap;html=1;fontSize=16;fillColor=#dae8fc;strokeColor=#6c8ebf;dashed=1;" parent="1" vertex="1">
          <mxGeometry x="560" y="70" width="80" height="40" as="geometry" />
        </mxCell>
        <mxCell id="WcU06nX2nmiv20t1e_cT-9" value="大气条件" style="rounded=1;whiteSpace=wrap;html=1;fontSize=16;fillColor=#dae8fc;strokeColor=#6c8ebf;dashed=1;" parent="1" vertex="1">
          <mxGeometry x="650" y="70" width="80" height="40" as="geometry" />
        </mxCell>
        <mxCell id="WcU06nX2nmiv20t1e_cT-16" style="edgeStyle=orthogonalEdgeStyle;rounded=0;orthogonalLoop=1;jettySize=auto;html=1;exitX=0.5;exitY=1;exitDx=0;exitDy=0;entryX=0.5;entryY=0;entryDx=0;entryDy=0;fontSize=16;" parent="1" source="WcU06nX2nmiv20t1e_cT-11" target="WcU06nX2nmiv20t1e_cT-15" edge="1">
          <mxGeometry relative="1" as="geometry" />
        </mxCell>
        <mxCell id="WcU06nX2nmiv20t1e_cT-11" value="结合光谱响应函数获得模拟的Sentinel-2和GF-6红边波段反射率" style="rounded=0;whiteSpace=wrap;html=1;fillColor=#dae8fc;strokeColor=#6c8ebf;fontSize=16;" parent="1" vertex="1">
          <mxGeometry x="230" y="180" width="500" height="40" as="geometry" />
        </mxCell>
        <mxCell id="WcU06nX2nmiv20t1e_cT-18" style="edgeStyle=orthogonalEdgeStyle;rounded=0;orthogonalLoop=1;jettySize=auto;html=1;exitX=1;exitY=0.5;exitDx=0;exitDy=0;entryX=0;entryY=0.5;entryDx=0;entryDy=0;fontSize=16;" parent="1" source="WcU06nX2nmiv20t1e_cT-14" target="WcU06nX2nmiv20t1e_cT-15" edge="1">
          <mxGeometry relative="1" as="geometry" />
        </mxCell>
        <mxCell id="WcU06nX2nmiv20t1e_cT-14" value="&lt;div&gt;统计&lt;/div&gt;&lt;div&gt;分析&lt;/div&gt;" style="rounded=0;whiteSpace=wrap;html=1;fillColor=#dae8fc;strokeColor=#6c8ebf;fontSize=16;" parent="1" vertex="1">
          <mxGeometry x="120" y="120" width="70" height="60" as="geometry" />
        </mxCell>
        <mxCell id="WcU06nX2nmiv20t1e_cT-21" style="edgeStyle=orthogonalEdgeStyle;rounded=0;orthogonalLoop=1;jettySize=auto;html=1;exitX=0.5;exitY=1;exitDx=0;exitDy=0;fontSize=16;" parent="1" source="WcU06nX2nmiv20t1e_cT-15" target="WcU06nX2nmiv20t1e_cT-20" edge="1">
          <mxGeometry relative="1" as="geometry" />
        </mxCell>
        <mxCell id="WcU06nX2nmiv20t1e_cT-15" value="定量分析植被冠层红边波段反射率随各参数变化的响应规律" style="rounded=0;whiteSpace=wrap;html=1;fillColor=#dae8fc;strokeColor=#6c8ebf;fontSize=16;" parent="1" vertex="1">
          <mxGeometry x="230" y="240" width="500" height="40" as="geometry" />
        </mxCell>
        <mxCell id="WcU06nX2nmiv20t1e_cT-19" style="edgeStyle=orthogonalEdgeStyle;rounded=0;orthogonalLoop=1;jettySize=auto;html=1;exitX=1;exitY=0.5;exitDx=0;exitDy=0;fontSize=16;" parent="1" source="WcU06nX2nmiv20t1e_cT-17" edge="1">
          <mxGeometry relative="1" as="geometry">
            <mxPoint x="230" y="260" as="targetPoint" />
            <Array as="points">
              <mxPoint x="180" y="260" />
            </Array>
          </mxGeometry>
        </mxCell>
        <mxCell id="WcU06nX2nmiv20t1e_cT-17" value="&lt;div&gt;EFAST全局敏感性分析&lt;/div&gt;" style="rounded=0;whiteSpace=wrap;html=1;fillColor=#dae8fc;strokeColor=#6c8ebf;fontSize=16;" parent="1" vertex="1">
          <mxGeometry x="120" y="190" width="70" height="90" as="geometry" />
        </mxCell>
        <mxCell id="pRP3WYwSnpYqVcdJd7ts-6" style="edgeStyle=orthogonalEdgeStyle;rounded=0;orthogonalLoop=1;jettySize=auto;html=1;exitX=0.5;exitY=1;exitDx=0;exitDy=0;" parent="1" source="WcU06nX2nmiv20t1e_cT-20" target="WcU06nX2nmiv20t1e_cT-22" edge="1">
          <mxGeometry relative="1" as="geometry" />
        </mxCell>
        <mxCell id="WcU06nX2nmiv20t1e_cT-20" value="优选对LAI敏感的红边波段" style="rounded=0;whiteSpace=wrap;html=1;fillColor=#d5e8d4;strokeColor=#82b366;fontSize=16;" parent="1" vertex="1">
          <mxGeometry x="120" y="320" width="270" height="40" as="geometry" />
        </mxCell>
        <mxCell id="pRP3WYwSnpYqVcdJd7ts-7" style="edgeStyle=orthogonalEdgeStyle;rounded=0;orthogonalLoop=1;jettySize=auto;html=1;exitX=0.5;exitY=1;exitDx=0;exitDy=0;" parent="1" source="WcU06nX2nmiv20t1e_cT-22" target="WcU06nX2nmiv20t1e_cT-23" edge="1">
          <mxGeometry relative="1" as="geometry" />
        </mxCell>
        <mxCell id="WcU06nX2nmiv20t1e_cT-22" value="改进现有的双波段植被指数" style="rounded=0;whiteSpace=wrap;html=1;fillColor=#d5e8d4;strokeColor=#82b366;fontSize=16;" parent="1" vertex="1">
          <mxGeometry x="120" y="380" width="270" height="40" as="geometry" />
        </mxCell>
        <mxCell id="pRP3WYwSnpYqVcdJd7ts-8" style="edgeStyle=orthogonalEdgeStyle;rounded=0;orthogonalLoop=1;jettySize=auto;html=1;exitX=0.5;exitY=1;exitDx=0;exitDy=0;entryX=0.5;entryY=0;entryDx=0;entryDy=0;" parent="1" source="WcU06nX2nmiv20t1e_cT-23" target="WcU06nX2nmiv20t1e_cT-26" edge="1">
          <mxGeometry relative="1" as="geometry" />
        </mxCell>
        <mxCell id="WcU06nX2nmiv20t1e_cT-23" value="构建新型三波段红边植被指数" style="rounded=0;whiteSpace=wrap;html=1;fillColor=#d5e8d4;strokeColor=#82b366;fontSize=16;" parent="1" vertex="1">
          <mxGeometry x="120" y="440" width="270" height="40" as="geometry" />
        </mxCell>
        <mxCell id="7DG72NX_XQv7gAje04wC-23" style="edgeStyle=orthogonalEdgeStyle;rounded=0;orthogonalLoop=1;jettySize=auto;html=1;exitX=0.5;exitY=1;exitDx=0;exitDy=0;fontSize=18;" edge="1" parent="1" source="WcU06nX2nmiv20t1e_cT-26" target="7DG72NX_XQv7gAje04wC-8">
          <mxGeometry relative="1" as="geometry" />
        </mxCell>
        <mxCell id="WcU06nX2nmiv20t1e_cT-26" value="基于地面实测数据对新指数进行验证" style="rounded=0;whiteSpace=wrap;html=1;fillColor=#d5e8d4;strokeColor=#82b366;fontSize=16;" parent="1" vertex="1">
          <mxGeometry x="120" y="500" width="270" height="40" as="geometry" />
        </mxCell>
        <mxCell id="7DG72NX_XQv7gAje04wC-1" style="edgeStyle=orthogonalEdgeStyle;rounded=0;orthogonalLoop=1;jettySize=auto;html=1;exitX=0.5;exitY=1;exitDx=0;exitDy=0;entryX=0.5;entryY=0;entryDx=0;entryDy=0;" edge="1" parent="1" source="pRP3WYwSnpYqVcdJd7ts-2" target="pRP3WYwSnpYqVcdJd7ts-3">
          <mxGeometry relative="1" as="geometry" />
        </mxCell>
        <mxCell id="pRP3WYwSnpYqVcdJd7ts-2" value="基于PROSPECT+SAIL模拟，&lt;br&gt;建立冠层散射因子与叶片反照率转换关系" style="rounded=0;whiteSpace=wrap;html=1;fillColor=#ffe6cc;strokeColor=#d79b00;fontSize=16;" parent="1" vertex="1">
          <mxGeometry x="410" y="320" width="320" height="40" as="geometry" />
        </mxCell>
        <mxCell id="7DG72NX_XQv7gAje04wC-2" style="edgeStyle=orthogonalEdgeStyle;rounded=0;orthogonalLoop=1;jettySize=auto;html=1;exitX=0.5;exitY=1;exitDx=0;exitDy=0;entryX=0.5;entryY=0;entryDx=0;entryDy=0;" edge="1" parent="1" source="pRP3WYwSnpYqVcdJd7ts-3" target="pRP3WYwSnpYqVcdJd7ts-9">
          <mxGeometry relative="1" as="geometry" />
        </mxCell>
        <mxCell id="pRP3WYwSnpYqVcdJd7ts-3" value="基于红边波段反演冠层散射因子，得到先验的叶片反照率" style="rounded=0;whiteSpace=wrap;html=1;fillColor=#ffe6cc;strokeColor=#d79b00;fontSize=16;" parent="1" vertex="1">
          <mxGeometry x="410" y="380" width="320" height="40" as="geometry" />
        </mxCell>
        <mxCell id="7DG72NX_XQv7gAje04wC-3" style="edgeStyle=orthogonalEdgeStyle;rounded=0;orthogonalLoop=1;jettySize=auto;html=1;exitX=0.5;exitY=1;exitDx=0;exitDy=0;" edge="1" parent="1" source="pRP3WYwSnpYqVcdJd7ts-9" target="pRP3WYwSnpYqVcdJd7ts-10">
          <mxGeometry relative="1" as="geometry" />
        </mxCell>
        <mxCell id="pRP3WYwSnpYqVcdJd7ts-9" value="将叶片反照率作为先验知识输入到基于SRTE建立的LAI反演模型，反演LAI" style="rounded=0;whiteSpace=wrap;html=1;fillColor=#ffe6cc;strokeColor=#d79b00;fontSize=16;" parent="1" vertex="1">
          <mxGeometry x="410" y="440" width="320" height="40" as="geometry" />
        </mxCell>
        <mxCell id="7DG72NX_XQv7gAje04wC-24" style="edgeStyle=orthogonalEdgeStyle;rounded=0;orthogonalLoop=1;jettySize=auto;html=1;exitX=0.5;exitY=1;exitDx=0;exitDy=0;fontSize=18;entryX=0.5;entryY=0;entryDx=0;entryDy=0;" edge="1" parent="1" source="pRP3WYwSnpYqVcdJd7ts-10" target="7DG72NX_XQv7gAje04wC-8">
          <mxGeometry relative="1" as="geometry">
            <mxPoint x="500" y="560" as="targetPoint" />
          </mxGeometry>
        </mxCell>
        <mxCell id="pRP3WYwSnpYqVcdJd7ts-10" value="基于地面实测数据对LAI反演结果进行验证" style="rounded=0;whiteSpace=wrap;html=1;fillColor=#ffe6cc;strokeColor=#d79b00;fontSize=16;" parent="1" vertex="1">
          <mxGeometry x="410" y="500" width="320" height="40" as="geometry" />
        </mxCell>
        <mxCell id="7DG72NX_XQv7gAje04wC-4" value="理论分析" style="text;html=1;strokeColor=none;fillColor=none;align=center;verticalAlign=middle;whiteSpace=wrap;rounded=0;fontSize=18;fontStyle=1" vertex="1" parent="1">
          <mxGeometry x="750" y="130" width="20" height="80" as="geometry" />
        </mxCell>
        <mxCell id="7DG72NX_XQv7gAje04wC-5" value="方法构建" style="text;html=1;strokeColor=none;fillColor=none;align=center;verticalAlign=middle;whiteSpace=wrap;rounded=0;fontSize=18;fontStyle=1" vertex="1" parent="1">
          <mxGeometry x="750" y="390" width="20" height="80" as="geometry" />
        </mxCell>
        <mxCell id="7DG72NX_XQv7gAje04wC-7" value="产品生成" style="text;html=1;strokeColor=none;fillColor=none;align=center;verticalAlign=middle;whiteSpace=wrap;rounded=0;fontSize=18;fontStyle=1" vertex="1" parent="1">
          <mxGeometry x="750" y="620" width="20" height="80" as="geometry" />
        </mxCell>
        <mxCell id="7DG72NX_XQv7gAje04wC-20" style="edgeStyle=orthogonalEdgeStyle;rounded=0;orthogonalLoop=1;jettySize=auto;html=1;exitX=0.5;exitY=1;exitDx=0;exitDy=0;entryX=0.5;entryY=0;entryDx=0;entryDy=0;fontSize=18;" edge="1" parent="1" source="7DG72NX_XQv7gAje04wC-8" target="7DG72NX_XQv7gAje04wC-17">
          <mxGeometry relative="1" as="geometry" />
        </mxCell>
        <mxCell id="7DG72NX_XQv7gAje04wC-8" value="预处理：Sentinel-2、MODIS数据质量控制；Sentinel-2重采样" style="rounded=0;whiteSpace=wrap;html=1;fillColor=#e1d5e7;strokeColor=#9673a6;fontSize=16;" vertex="1" parent="1">
          <mxGeometry x="260" y="580" width="470" height="40" as="geometry" />
        </mxCell>
        <mxCell id="7DG72NX_XQv7gAje04wC-15" value="" style="shape=image;verticalLabelPosition=bottom;labelBackgroundColor=#ffffff;verticalAlign=top;aspect=fixed;imageAspect=0;image=data:image/png,iVBORw0KGgoAAAANSUhEUgAAAqoAAAJ3CAYAAABcJXObAAAgAElEQVR4AeydB3fbxtZ2v///P957bxI7jksSJ3GNndiS1XuxrU6qy5JVSYDnW3uoY9OyRJESKQ2AB2thgQUEB8+0jTNnzvy/Wq1m2qSAFJACUkAKSAEpIAWkQCwKwKfs/y+WBCkdUkAKSAEpIAWkgBSQAlLAFRCouhI6SgEpIAWkgBSQAlJACkSngCyq0WWJEiQFpIAUkAJSQApIASmAAgJVlQMpIAWkgBSQAlJACkiBKBUQqEaZLUqUFJACUkAKSAEpIAWkgEBVZUAKSAEpIAWkgBSQAlIgSgUEqlFmixIlBaSAFJACUkAKSAEpIFBVGZACUkAKSAEpIAWkgBSIUgGBapTZokRJASkgBaSAFJACUkAKCFRVBqSAFJACUkAKSAEpIAWiVECgGmW2KFFSQApIASkgBaSAFJACAlWVASkgBaSAFJACUkAKSIEoFRCoRpktSpQUkAJSQApIASkgBaSAQFVlQApIASkgBaSAFJACUiBKBQSqUWaLEiUFpIAUkAJSQApIASkgUFUZkAJSQApIASkgBaSAFIhSAYFqlNmiREkBKSAFpIAUkAJSQAoIVFUGpIAUkAJSQApIASkgBaJUQKAaZbYoUVJACkgBKSAFpIAUkAICVZUBKSAFpIAUkAJSQApIgSgVEKhGmS1KlBSQAlJACkgBKSAFpIBAVWVACkgBKSAFpIAUkAJSIEoFBKpRZosSJQWkgBSQAlJACkgBKSBQVRmQAlJACkgBKSAFpIAUiFIBgWqU2aJESQEpIAWkgBSQAlJACghUVQakgBSQAlJACkgBKSAFolRAoBpltihRUkAKSAEpIAWkgBSQAgJVlQEpIAWkgBSQAlJACkiBKBUQqEaZLUqUFJACUkAKSAEpIAWkgEBVZUAKSAEpIAWkgBSQAlIgSgUEqlFmixIlBaSAFJACUkAKSAEpIFBVGZACUkAKSAEpIAWkgBSIUgGBapTZokRJASkgBaSAFJACUkAKCFRVBqSAFJACUkAKSAEpIAWiVECgGmW2KFFSQApIASkgBaSAFJACAlWVASkgBaSAFJACUkAKSIEoFRCoRpktSpQUkAJSQApIASkgBaSAQFVlQApIASkgBaSAFJACUiBKBQSqUWaLEiUFpIAUkAJSQApIASkgUFUZkAJSQApIASkgBaSAFIhSAYFqlNmiREkBKSAFpIAUkAJSQAoIVFUGpIAUkAJSQApIASkgBaJUQKAaZbYoUVJACkgBKSAFpIAUkAICVZUBKSAFpIAUkAJSQApIgSgVEKhGmS1KlBSQAlJACkgBKSAFpIBAVWVACkgBKSAFpIAUkAJSIEoFBKpRZosSJQWkgBSQAlJACkgBKSBQVRmQAlJACkgBKSAFpIAUiFIBgWqU2aJESQEpIAWkgBSQAlJACghUVQakgBSQAlJACkgBKSAFolRAoBpltihRUkAKSAEpIAWkgBSQAgJVlQEpIAWkgBSQAlJACkiBKBUQqEaZLUqUFJACUkAKSAEpIAWkgEBVZUAKSAEpIAWkgBSQAlIgSgUEqlFmixIlBaSAFJACUkAKSAEpIFBVGZACUkAKSAEpIAWkgBSIUgGBapTZokRJASkgBaSAFJACUkAKCFRVBqSAFJACUkAKSAEpIAWiVECgGmW2KFFSQApIASkgBaSAFJACAlWVASkgBaSAFJACUkAKSIEoFRCoRpktSpQUkAJSQApIASkgBaSAQFVlQApIASkgBaSAFJACUiBKBQSqUWaLEiUFpIAUkAJSQApIASkgUFUZkAJSQApIASkgBaSAFIhSAYFqlNmiREkBKSAFpIAUkAJSQAoIVFUGpIAUkAJSQApIASkgBaJUQKAaZbYoUVJACkgBKSAFpIAUkAICVZUBKSAFpIAUkAJSQApIgSgVEKhGmS1KlBSQAlJACkgBKSAFpIBAVWVACkgBKSAFpIAUkAJSIEoFBKpRZosSJQWkgBSQAlJACkgBKSBQVRmQAlJACkgBKSAFpIAUiFIBgWqU2aJESQEpIAWkgBSQAlJACghUVQakgBSQAlJACkgBKSAFolRAoBpltihRUkAKSAEpIAWkgBSQAgJVlQEpIAWkgBSQAlJACkiBKBUQqEaZLUqUFJACUkAKSAEpIAWkgEBVZUAKSAEpIAWkgBSQAlIgSgUEqlFmixIlBaSAFJACUkAKSAEpIFBVGZACUkAKSAEpIAWkgBSIUgGBapTZokRJASkgBaSAFJACUkAKCFRVBqSAFJACUkAKSAEpIAWiVECgGmW2KFFSQApIASkgBaSAFJACAlWVASkgBaSAFJACUkAKSIEoFRCoRpktSpQUkAJSQApIASkgBaSAQFVlQArkQIE0Te3o6Mj29/ft06dPtrW1Zevr61/2jY0N29nZsb29PTs8PLRqtZqDu9YtFEmBWq1mJycnoYxvb2/b5ubml/JNWaeM8zl1gPO0SQEpkA8FBKr5yEfdRUEVADgBTzrolZUVm5+ft9nZWZuYmLDR0dGwj42NhffT09P24cMHW15eDh08QHtwcGDHx8dWqVQM2NUmBWJRgPJIuaR8Ap88aJXLZZubm7OpqSkbHx83yjY7r9kp49SB1dXV8MBG3UiSJJZbUjqkgBS4ggIC1SuIpp9IgdtWgE6cDhwr0sePH0PHDZxOTk4GKOW1d94cee8759DRs79//96WlpZsbW3Ndnd3vwAr1ittUuCmFaDcNT58AaaA58zMzJcyS/ltLNtnX/M9u0MrD3FYWFWmbzo39X9SoDMKCFQ7o6OuIgVuTAEAlWFP78DpqBstSw6kFx3Pnu+dOtC6sLAQrFZYW+UecGNZWvg/AiKx7jOEv7i4GKymlEdgk3Ls5dutp83K9tny7Q9jWGRVpgtf1CRABhUQqGYw05TkYiqAVYjOliF+LEzeedMxX9RxX/Y5v/Wd6+EuALhipcWahZVVQ6fFLG83cdeMDDCsz4MXgEq5pgx2omxT9h1aeY3bC2WahzBcCrRJASmQDQUEqtnIJ6WywApgBaIzp5PF/9TB8jIIver33rlzpHNnYpY69gIXwC7dOmWKssXIAG4ol1lLr1qe/XdebyjTWG6x4MrC2qXM1WWlQAcVEKh2UExdSgp0UgGGQ5nJT6fK8OXZDtffd+PonTpHhl+BZNKiTQp0QgEglXJN2aKMUYa9zHWjPJ+9PmDMqAE+3rjSyH+1E7mqa0iB7iggUO2OrrqqFLiWAgzzux+qd+ZYnLrViV90XeCB/8UdoFQqhU79WjemHxdeAayYQCrD/A6nDqsXlcNOf+7WW9KAX7ZGDQpfLCVAxAoIVCPOHCWteAq4HypQ2OiH2umOut3rue8qllXSqE0KXEUB/J2xYuLCchsPXmfLPWlgJz3UOXzAVb6vkrP6jRTongIC1e5pqytLgZYVwMr0+fPnEP/R/VBj6MgbO3bSg3UX0NAEq5azVieeKsDEKSYy4cbiltTG8nWbrynbpIm6RwxW6qL8slV0pUAcCghU48gHpaKgCuAb5/FQ6cAZYqfDjq0jd4ggXaQT4JBfX0EL7RVvmwmBTJyijMf2ENZY30gfE66ILcyEK5XzK2a4fiYFOqSAQLVDQuoyUqBdBbDY4IfKSju36YfqEHrZkQ6cDp3zCCVEJ65NCrSiACMGWCqZxORl6LLydlvfO0RTJwFrRhA0kbCVXNY5UqA7CghUu6OrrioFLlQAQCU+KfFQGWr0pU5vq2Nu538dMgAOwEMuABdms744VQCLJJOV3KXFy1A75e42zgVY2fEVZ/U27oHRD21SQArcrAIC1ZvVW/9WYAWwKjH8yZBijH567cAAHTjhfQBufA+1SYGLFDg8PAwz67MCqGfrAemmvGNhZcLV3t6e/Fcvymx9LgW6oIBAtQui6pJSoFEBLEoeDxXft9j9UM921M3eE9pHw6KNua3XjQr4kD+QB+w1K0uxfueATfqpu1iGiX4h/9XGnNZrKdA9BQSq3dNWV5YCIdQNPm74ujGESGec1Q77LEhwH7gAcH8AiTYpcFYBrI8+enC2/GTtPcDqO+Ue33LiwepB7Wyu670U6KwCAtXO6qmrSYGgAODmfqgeD9UtM1nroC9KL6DKPWElBki0SYFGBRjyZ9Id5ScvD2fcC2We+2F3/9Xt7W3FX23MfL2WAh1UQKDaQTF1KSnA5CI6aCwtAJx3ahfBXtY/dwBhYpgmmqj8uwLUA+qAR4rI20Oa11vuix1glf+q576OUqCzCghUO6unrlZQBfBDBdSYGcyQIEODbn3Jayft98cRH0TARDEnC1oBztw2cXaZbNdYRnidt93rth/xX2WyJO4AqgtnCoXeSoErKiBQvaJw+pkUcAWwHrH0IsOcdFR0xm5pzFvHfNH9cL8AOiv6qIP2klHMI0uQLi8vB0ujA9xF5SZPn1MH2LGuUhfw3dZyrMWsA7rrziogUO2snrpagRQAUPHNJJ6oTxihoypS5+ygwT0zzAugaOnJAlWCM7fqQ/7ul+3loyhH6gFtALGR0YD6wEOsgPVMQdFbKdCGAgLVNsTSqVIABeiMGdrzVaXohIsKqI0A4tYkOmbFVi1mXcGi7r7ZjWWjiK8dWhv9VxUdo5j1Qnd9PQUEqtfTT78ukAIMadPRMMPX1yynA6ZDYi9iZ9x4z64B2rCwgbZiKYCPNhOKsKzz0NJYNor42tsFrxcAvIezkntMseqG7vZ6CghUr6effl0QBbCiMkGEpRQZ5qfj9Y6oiJ3weffsegAquEPIBaAglcMsWNCZSIj10OvGeWWkqJ85uDPpkAc5RmPkDlCc+qE7vZ4CAtXr6adf51wBhrCxDgJePqSpYf6LZ287rDKpDMuzLEc5ryCnt0cdYZUyz/+iAull903bwQ7QE9KNh1890BWjjugur66AQPXq2umXOVYAwMIP1Yf56YAEqBcD6tkOGmAhCoJW7clxJTm9NdxhGPL3MkDe+2sdz68zDqyMzhDOCt9e+a/mv67oDq+mgED1arrpVzlVAEBlmJ9VpQAthuq8s1UHfH6n6/o0Ht1qRCesDjinleV0YiEPcwAXed5YBvT64vrilmeOuMowWkM4K/x8NRExv/VFd3Y1BQSqV9NNv8qhAnQQACrWIToOnxQiS+rFHW4zGKETBmAUWzWHleX0lliFjZiheoi7Wh2h/nj7wkMx7hOAv9wB8ltndGftKyBQbV8z/SJnCmBFPTg4CENwdLp0HsRBVOd79c4XDdGPnViScgHIWaUxC5OB8N32B7pmDy367vK65MDKwx3+qzw0C1jzV290R+0rIFBtXzP9IkcKMPPWV5VyuFKnenmn2qpGgCrLyTKsqSHN/FQcHu6w/Pks/1bLg867vG75Ax6jOvJfzU+d0Z1cXQGB6tW10y8zqgCdLNDEkDTWPnW2l3eeVwUMOl1+i6WaVby05UMBhvwJ1Ubeeh5ftYzod9/WPwdVdOEh7+PHj1+WY9XDXj7qj+6iPQUEqu3ppbMzrgCQSidbLpeDHyodAR2DD7up0/y20+yEHg4yDGdqYlXGK9DpBCosfdSdTpQPXePiOud1B/9VJncSq1buANmvQ7qD9hQQqLanl87OsAL4obIyDA0+nazDqXcG6jAv7jCvqw1aY7mmo5VVKLuViAc9RiKw8pGn1y0X+n1rdc7bKuITM9kT/1U99GW3Hinl7SkgUG1PL52dMQXoWPFDpWFnqNInfghOW+sgOwkSdLYADsHhyRdt2VOAuoS7DPVIdehm6xB6O7C6/yoP3wLW7NUjpbg9BQSq7emlszOkAJY7oAgLBJaITkKXrtV+J00nC+AwU1zLR2aoIp0mlfrESkpYxslL1YH268B1NQNW/QGBuoTvNxMVqU8aqchenVKKW1NAoNqaTjorYwoQDgk/Oix48kO9+Q71vA7ZO1lfXjVjRarwycV6h9sMeeuwdF4+67ObqW9uXeXBgXwhCoOsq4WvprkUQKCay2wt7k2xsgsNNg03ExCIhyrrz810nK0AisMqgc0BH23ZUAAAwr/bh/w5tpLfOqe7dc9hlXpF/FX5r2ajPimV7SkgUG1PL50dqQLMhCX8ETPLsTA4EKmj7G5H2a6+bonDyk3kBZar1Ra/AtQtRidUr+KqT17/yBeHVvxXeajgQVD1K/66pRReroBA9XKNdEbECuCXRbgp/B4ZUpalJ86O1DtUP9Kp0qHi8yjfuogrmFkYTuYB0B8yPA91jKuunX2IwH91c3Mz+K9q8mLcdUypa66AQLW5Pvo2YgUY5mciAQ2y+6GqM42r87wIZjyfcAHQ8qrxVjIeInClYVjZ8+yiPNXn8dQ9d3fC/Yk6xup78l+Nt54pZc0VEKg210ffRqgAw1mEmyJMDlZUOlBvmNVZxtNZXpYX5BkPGAxTqhONsKKZhdEKHgQvy0t9H1+983aRIw8auNoQA1cjGHHWNaXqYgUEqhdro28iU4DhK4b5Gc6Sv1x8HWO7sOIWOvKSBw8NT8ZV4Xh4wKUGdxo9CGa7vpF/1DceOrCQa3WruOqaUtNcAYFqc330bSQKuBXVZ/MDRQ467QKSzo+n0/U8xAcSVw5tcSjAQwPDxT5ioToTT525Sl5Qz3xnsqnHXtXDYRz1TaloroBAtbk++jYCBXj6p2Fl+IpG2hvcqzTY+k1cHa6DKr505LE6zggqnFlYKEMxU+OqK9dtu7zdxLoKrOIKIP/wOOqbUtFcAYFqc3307S0rwIorDD96TFQHm+s22vp9XJ0wnef8/Lxiq95yfePvGfInHqfHTFWdi6uuXLftIj+pb/iH4+cvv9UIKp2S0FQBgWpTefTlbSqAJZXVpWhQCdx/3QZav4+3w6XzJJ+x8sh/7vZqnc/yZ8hfdS7e+tKJtswfQLCcs9S0RjNur97pn5srIFBtro++vSUFsOowaQp44em/Ew2zrhF3x0s+A0iaWHU7lQ5QIUi8JirGXU862Y7xMOIPiPIRv516p3+9XAGB6uUa6YxbUIDhKALC89TvT/6dbKB1rXg7Y+I+Et1B280qAKj4kL8eDuOtH51su7x9xbVqa2tLVtWbrXL6txYVEKi2KJROuzkFsKYyBOyNqFabKkanSQdMnmPhYWKV4j3eXJ1Da0AFYOkkCOla8ddd6hwPJktLS4q8cXNVTv/UhgIC1TbE0qndV4DhR6ypTKyh8aQRVWcXf2fXqTzyhxPiPVIOsrBRZi/as5B+0ri3txdibLr+ncpPXSf+uut5TlQVWVWzUmOLlU6BarHyO/q7pcPHmkb4FG9A1dnF39l1Oo/Ie2KrEvXhJjbKHVZF34nby45134+8Jj0MkeOagD8nOxNRLtr9nMYjv+c6jdf2//P/bzw6BHdLB9LC7G8073Q+6nrZqLue95QDyp42KRCTAgLVmHJDaQlQAKB4w6mOLhsdXafzifxnGBqfyW7FegQOgUYgEosiAe55SCIcGv9Lp81wKLOi8ZvFys9EI3b8p9vd/bdYi33nulyfMs9/4vLCkrJYtlhB6NOnT2HHugwMowWAC7x2YkMD/o8HQ/mlFrOued0l/ymX3apvnSivukYxFRCoFjPfo71rrDs+7O8NqI7F7EDpOPFPBhbbnVwFgBHmit8BeA6iACBgBowCh1yb8kYHDXgCbPjINsYQJR3szJA+u/t3rR4bfz8yMhKux28p4/wn/00aGIYlPQ63pBGoJb0ANOnnPhxmgW2gm3tuFWI5FzDnv/RgWMw61ti2Ug4pczwcyaoabRdZyIQJVAuZ7XHeNB0sQEFj6Z13Y0Oq18XqTIEn34EzgBO48mFyXgNnWIAANb4ntBXw5pZRYBTAA0QBMkCQctQIlv4ffOavG4/dLndn/8vfexr9PUf/zNMK1AKzWGWxyBJ3GBjHOowe6II+DrGNmrkllfvj2t2+T10/7vpLmaI8KZZxnP1jkVMlUC1y7kd27wAIgEEsTRpNdWxxd2w3lT9AFNZGYBMQA0SBMbeKAqLAmltD3SLKbxp3T6+Dn7/n6J/FAGyNaTn72tN8Np1+n3zvr3Gd4KEPaywQi16uGZ/5DP+z1/L/0LFY9c/LAWVDw/+RdY4FT45AteAFIKbbx+qDZYiO1htNdZbF6iwvym8vD8AVDzJAKa8dSvkd55y1OPKZ/9bPueg/svi535vfJ8dGDbgn6hM6oZdrlkctsph/saWZskMZwRqvTQrEooBANZacUDpC4yh/OYHpRZ33WQhrhDOB18XlplGns68v0lqfX6xnnrUBVHmwYdSiVV9ndV1SoNsKCFS7rbCu35ICNIo48WP5obHMc2egeysmBCjfle+xlwEeZABVXETwZ9YmBWJQQKAaQy4oDSHkDpM7NOyvzjz2zlzpUxnNaxlwiyqTF+Wnqo45FgUEqrHkRMHTgX8qM7QBVVlUBQJ5BQHdl8p2FsoAExezsjJcwbvOQty+QLUQ2Rz/TeK8r4lU6sSz0IkrjSqneS4DDP8zYZEQZ9qkQAwKCFRjyAWl4cta43QANJR57gh0bwIdlQGVgRjLgE+2Y67A5uameiYpEIUCAtUoskGJIFA7MR9jbLyVJkGFyoDKQFHKgMMqMYu1SYEYFBCoxpALSkNYUUigKhgoCgzoPlXWYy0DgCpL/QpU1THHooBANZacKHg6fOnUWBtvpUtgoTKgMlCUMgCsEoVFmxSIQQGBagy5oDSEYP8shVmUjkD3KehRGVAZiLUMEH2FZYq1SYEYFBCoxpALSkOI2VculxWeakKdd6ydt9Klspn3MuD+qSxRzAIs2qRADAoIVGPIBaUhLNfHsn1amUowkHcY0P2pjMdaBgBVrKnz8/OKo6p+ORoFBKrRZIUSQixV4vfRiNNYxtqYK10CDZUBlYE8lgEWW8FYoCVU1R/HpIBANabcKHhaWJ1qaWnJpqenBalyAVAZUBlQGbjhMgCo0v4SLrBWqxW8R9Ltx6KAQDWWnFA6LEmS4MCPVVXLqMpilUeLle5J5Tr2MsCwP0YDbVIgFgUEqrHkhNIRnuAZ/iee6sjIiKwpN2xNib0DVfoEeSoD3SsDGAcwEjDbH6OBNikQiwIC1VhyQukIClSr1TD8T4fkM1DVOXWvc5K20lZlQGXA21pCBGJN1bC/OuSYFBCoxpQbSktQYGdnx96/fx+G/2lA1ZGqI1UZUBlQGehOGXBIJSTVxsaGIFX9cHQKCFSjyxIl6OTkxEqlkkBVQ/96SFEZUBnochlwUF1cXLTDw0N1QFIgOgUEqtFliRLEsBNWVZ7wZVHtjhVF1inpqjKgMkAZoI0lJNXm5qasqep+o1RAoBpltihRblWlIVUEAHWogiqVAZWBzpcBNwTImqo+N2YFBKox507B07a3txdmoXpjqo6q8x2VNJWmKgPFLQO0rcRNZQQrTdOC9zi6/VgVEKjGmjNKl1UqFSuXy2FYSrBa3M5UIKW8VxnofBmgTWXIH2uq4qaqw41ZAYFqzLmjtBlxVefm5jT83+UJFQKBzoOANJWmMZcBXKqIrrK9vS1rqvraqBUQqEadPUocgadZd3pyclJxVQWrmgGuMqAy0IEygDUVUGXJamJXa5MCMSsgUI05d5S2oABWVZb1o2GVC4CsVDFbqZQ2lc/Yy4BDKlFVsKZqkwKxKyBQjT2HlL4QMmV9fT1YUgSqAoHYQUDpUxmNuQw4qK6srIR5AOpipEDsCghUY88hpS8o4L6q3sjG3BEobQIVlQGVgVjLAG2orKnqWLOkgEA1S7lV4LTiq0pAanxVR0dH5afWAT+1WDtSpUuQpzLQnTKA+xRtKNZUzfQvcIeasVsXqGYsw4qc3IODA/v48aNcAASpelBRGVAZaLMM+GgUcVN3d3e1ClWRO9OM3btANWMZVuTkulV1dnZW4ara7KRkoeqOhUq6SteslAFAlbQSN/Xo6KjIXYnuPWMKCFQzlmFFTy7DVQsLCwJVgaosaioDKgNtlAFcpoib+unTJ1lTi96RZuz+BaoZyzAl14KvKlZVrANuJciKVUPplAVOZUBl4CbLAG2kt5P4pipuqnrRrCkgUM1ajim9YRLA8vKy4qq2YU25yY5R/yUQUxmIpwwAqUyi+vDhg+3s7Miaqj40cwoIVDOXZUowChComhArjdYCdY7xdI7KC+WFykA8ZYB2slQqKW6qus9MKiBQzWS2KdFMBmAYi1ArWAvUKcbTKSovlBcqA3GVAVyl5JuqfjOrCghUs5pzBU93mqYhxIpbVdUxxtUx5jE/3HrvQ6k8ILW7N16D13nUSfcUT12kfFLOyuWynZycFLzX0O1nVQGBalZzTukODS++qlNTU18mC6iTjKeTjDkvHBgbQZNZ0b7zub/m6FBJWSMOJQ9I7Fiq2JlNzY4f4Hk733Eev+UajARwTf8fPzb+Z2PaPL0xa6q0xVf3KEOU0729PfUYUiCzCghUM5t1SnitVrPPnz8HMKCDV0cZX0d5m3nicOdHOm1/zRFYBBrZz4KnA6gfgU/iT+Jusrq6ahsbG2FntTT2ra2t4DeN7zQTVs7ufM5v+C3WLR6wCLPGdf0/Go+eHk8faUVLvweH2Mb7uU2t9d/x1T0v4/imypqq/jLLCghUs5x7SruxCADwQEdJw6wOM74OM5Y8cagjPYDg/Px8mGACQOK/x0PP/v5+2FkFDT9o34nfS2dfqVRCeB/K3UU7bilndz+X0EBcg53rcV32w8PD8F8cSQMWMGCXtAG2QC1WWbfEqqyrnF9Wr3iYYSU/yjUP9dqkQFYVEKhmNeeU7i8KsBwgDXLjEO1ljbi+z0dH7/DpFkbKwMjISAA6ysTS0lIAvfX19W8sn4ApMAokAo8xduTALmkjjaSVco5lFustVlwgdm1tLVhn5+bmglvBea4Dgtp8lPVW2yyvE5yPNVVxU790FXqRUQUEqhnNOCX7qwI0xAypNjbQrTbqOi87nTj52wikvCb/sI4CpVhIGZ4HTikPgB0WSsoH0JfHjfsCZLlXYByXAu4fCyzwijsBVli0cojltRYpZT8AACAASURBVOA1O+W+3TbK6wn5j2U+xoewPNZF3VP3FBCodk9bXfkGFXCraruNus6Pt8P2Bw8HK/cpBUwBMPw7gVOsinTIMVtHb6IqACTsgDluBbgQYH0FXt0X1n1f3YXAtRW4xlsP2m2jvN7wsIbLiTYpkHUFBKpZz0GlPyhA58xQqFuP2m3cdX7cHTWz5bESYjXkocSH7YFT/D1lNfq+IUATQAV98LVFM3bgFcszmqrcx13ur5I/gCojDNQTbVIgDwoIVPOQi7qHoAAWJCxHsg5lr/Mlz7Du4V/KEDUdNEOXTCQCrNynVFB6/coOvOISAcigLfDv4Or6u6X1KqCk39xe/fO2j1EG6oo2KZAHBQSqechF3UNQgA6YBpqQPnS06jBvr8O8THsHU/eb5HxmtTOUj48l+QhIqbPtfuWm3mBpBVjdvxWLHG4C5BN5JHCNty411jXyi4d1Htq1SYG8KCBQzUtO6j6CAliK6GQFqvF1rHSiDqh0rjxQePB8hvWx7pF/gJO2m1cAVwGPNEBIIx4WqEv4A7ubgAMr+dgISHp9+/WNvCGfZE29+bqjf+yuAgLV7uqrq9+wAkAOw8U02A5G6kRvvxP1PHDAweqDBQ8gAk6xnApQb7iyNPk7n5SFDzDWOfy/gVby0fPQ81THOOoXoIq7DPVJPttNCre+ypwCAtXMZZkSfJkCwA8Ntlt/1JHeXkcK1PjQMUP7xHXEckoeaVj/spIcz/dMVvQoAswmB1ob81bwert1DP15OOfhT5AaT71RSjqjgEC1MzrqKhEpgGWO4S8HVCIB+Gsdu9uh0mHygACc8ho/R4b1WT0MQNVSjhFVlCsmBWhlchsjF/i0Yh2njvkDiaC1u3XsbBuG3uzkBRZwbVIgbwoIVPOWo7qfoAATcehAzzbqet+dTpSO0i3Y7nuKVRsLD6GRsPLI0pOvykl+YhUHWonVykOJ+7I6PKm+dae+ua7ozGv8iFm1TJsUyKMCAtU85qruKXSgWFUVV7W7HaV3mH4EVrC0MbSP9VR+p/mvjEzAAljxjcRq7hZWhygvGzp2vi6iMW0cdU6jFfmva0W9Q4FqUXO+APcNLOEXiaVPnWTnO8nGIX4Pxo91TcOPBahcF9wiDyasEgawEpu10SVAdbDzdRBQxZpKW6cRiwsKpT7OvAIC1cxnoW7gIgXwpWPyjuKqdq6DpGN0QEVX4p5izWGizVU6yjQ1O66YHZ7U7OB0/3xUs72jmn06rNmng5rt7Nds63PNNj/XbH2vZqufalbeqVlpOw3HjT3OSe3guBaulaQXlQh9fpMKEJuVUQ1fTICy477Lgtbr10nqIXWQNk4TE2+yZOu/bloBgepNK67/u1EFsO4wFCmr6vU6RgdUAAM/RCzVzP7G/9Ss1jRPazWzalqz46oFmPx8mNrOQWrru6ktbdZsdjW1yeXExpcTG1tObWg+sYG5xPo+Jtb7PrG3M4n9M5PY31OJPR+v2pOxxP4YqdrvQ1V7PFy1F+NV65mt2uhiYjPlxBY36yAbAPYA6DX7fGS2f1QLQHxSNaskZmnzZDe9J33ZmgI8vDAkja8ykQJwDcHKSnliF7BevV4C/WiKNVWbFMizAgLVPOeu7s3cquqdozrGq3WMDhVAP8O6RyEwf/XcEgacpABKAiDWDGCc20hseCGxV5NVezoGbFbtz5Gq/TGS2G9D1bD/OlQ19kcD9f3hQNXYH/RX7f7p/ktf1e69q9rPvRX7uZdj1fiM834drF+Ha/45mthfo9Ww819PxxJ7Nl61f2cSG55PbKaU2vJ2aruHtTq0BmoVuZ6boR34EJcAgBXXENxEVB+vVg+9/aI+oiGjGfID70AB1SWiVkCgGnX2KHGdUIAIAFgesKo6cHmDr+PFHSZaoRk7M/gJ+o71Jkm+BVQspgzVl3awjtYCCPZ9rNq7D4m9nU3s1XRqT8frIHm3t2o/vq3aTz31/U5P1e701ne++7pX7GeA9MwOpPoOoLL7Ofw2XOv02j+95b8q4f84/vS2YvfeVQLQ/oEldiKxN7OpvfuY2MDHxMaXqraynQa4lvtAJ2re99dg4hUuAcxQJ1IA1nkPa6W6eHFdPKuN10lGjLRJgbwrIFDNew7r/oLFAcsD4CVQvbwzpBMEHr76oJbs8ODb4cXDEwuW0oV1htvTMFT/cgrraGJ3e6r2wxsAsRKAFBgFIgFKh8vbOgZr7Cn8ArUAc4DZNxV70F+xl5NVG5xLbLqU2Nx6aoubabjPz8dYialMsrp2qklh0h0uAcT/BFgpd6qfl9dPb8dwvZE1tVOlUdeJWQGBasy5o7R1TAGsqvhVnrVM6P3XjrEOCfUVbt7PzthqecWOj+vLMWJhPKpYGCpf3U5tYjkNFsn77yoBPrFUuqUzHBmiP91vC0pb/d+QzgZLLffCb+/1Vu1Rf9VeTiY2slS15a2abe+ntn+UWiURsHaicuImgnsOwEr9dJcAhzHVz6/1Ey1cFx4id3Z2OpEFuoYUiF4BgWr0WaQEdkIBrDdYVb0jVAf4bQcYOsGxMZuemrK1tVU7PDiwarVi1TS1/WOz+U2zt++T4OvJsPlvg3Xr6J2eyhdraQwW01bh9KLzvnEjOLUE4x+L/yv3jb/r66nEZss12z2oWTXRQgadqJ9YBvFfJYqE6uj3dfNse4UrjiZRdaLk6RpZUECgmoVcUhqvrQCWG/zisETULYeXdwZnO4fcvh8fs+nJcVtamAsa7e2f2Oqu2WSpZgPzqb2ZSQKgAXfuX8qweR7A9CJgbfyc+8R1wV0ZmMDFRDAmZuGLS7SC8k5qlapbWf147WJbqAsQYgnLKuGsAFbig8od4Nt2irYLkMe/lwUWtEmBIiggUC1CLusegwJMPCA8Dp1fbqFz4tuO7eL7HLfJiTGbmhy3yZn3Njy9bGNze/Z+rWbjyzV7NZ3Y/b66jymAdre3PrTfCHBFfg281qG9Yg8GqvZqqmoTy4nNr6e2ulOfkKVq154CWFVx0SH2KqMfwBjuAI3Lsl5cnlst99k+z33H0UixU9srXzo7uwoIVLObd0p5mwpggSC8kvt5FbLTwyIzgVVmwiYnp210as76Z7bs2dixPRhIvkx2+uK3eTqzvshQ2uzev+h0OlHsfl/VnowmNrKYWvlTakzCOvliaW2zwBbsdEY9iMvLJKGVlZVwBFgJZ4V11V0CijwiwkM2o0Kbm5uaSFWw+lHk2xWoFjn3C3bvdIKFB9UJgqyP28T0RxuY2rTnIwf221DF7g8k9vO7JFf+ps0As9PfuXsALgJcm1iwvw9V7O/JxKZXEts7TK2mFQYubXGwEhIGjdWWgFSg1V/jl+mwWsiHzImJMBqEBmiipYovLU46IScKCFRzkpG6jcsVYPIBQ//FtMicDvVPTdnQ9Iq9ntizP4Yrdr+/Zj+/Swvjb9ppQD3vekQ9AFgJ0cXxz5HE/pmu2shCYivbNatU8GGVH+t5NZY4qwz/O6A6pPLerateh4tYj/2egXbFUD2vBOmzPCogUM1jruqevlMASw2dXeEsMgz1M1lqasLGpz9Y38SqvRg/tgeDdUC91/d1uP886NJn14/9GvxZe+rhurCw4su6tJnap33B6ncV1SwM/zOpCh9VQNV36i++mUy2YmSkyLFXGf5HD0J7aZMCeVdAoJr3HNb9Gb5vLPvplpjiDBvWIbXuizpvbyd3wnD0/f4kxDwVhF4fQlvV0GPKYm3lN78OVO3d+8RK26nthbisqqiuAJOqfOUqh1Q/YlV1lwBfipX6jKXRrY15r99+r0w0o13DCq1NCuRZAYFqnnNX9xYUYMifcDdF6ci8o2bS1MTklI3MrtnL8QN72F+xX/rTL4H5W4Usndc5oP3qy1qxhwPEZk3CggJTpSQs3aoqW1eAYW0shg6oZ48OrB4ZwGHVy37ejw6rtGv7+/uCVVWcXCsgUM119urmmEDFEo3ekRUBVgFUwk5NTM/Z24lNezp6ZFhR7/bKkhoTdHuIK2LSPh6ux2WdWEnt06G7BPixePX45OQkWAvPAmrje2AVVwBgFWDz0HNFqOO0Z0QAwJUJy7JiqhavjhTpjgWqRcrtgt0rfql0ZvhzFSJ26ng9Lur09KwNTS7ZP+O79vtQ1e6dzuaPCdKUlm+ttEDrD28r9nAwsf651ObWU9vZL26kAJ9UBZgSqqoRUM++PmtddT/0IgCr3yOaKApAwTq4At2uQLVAmV2kW8XPrdEv1Rv0XA4JjhNyaswm8dWb+mBD0+v2bOQwWFEFhN8CYcx6NMZkfdhftZ7ZNPiwHhzXrIiRrbASNhv+bwRWYJYJWEArE62AVR9FyWWdP13Yg3aNXZOritS7Fe9eBarFy/NC3DHrhhcpZirD/ePTC9YzvWd/jlTChB1m9PvknZgBTWn7FqaxrrJMK4sH/DFctTeziS1v16xasDkzjIgwqQogvcyqyjlAKmDLuQyH4wpQJFhlUQQWAtDkqkJ0cYW6SYFqobK7GDfrfqlubcivRaW+yhRD/YMTK/ZybN9+H07sXh9xURV2KusATAzWn07DWj2bSGxwPrHFzcQqCfU4//6rABcThQDQs6GqGq2pZ19zPp8RxoqZ8XlvB7g/B3KPr0qkE21SIC8KCFTzkpO6j6AAcQXpqIixmOsOapyJFEyY+mD9k+v2ZOTY7g+kdvcdPqnfWuiyDmxFTz/5CbDe7anYs/Gqja+ktrFXs2oA1nxXfCZV+YSpVqyqDq1uXWUi5cePHwsRP5n2DpcHAP3g4CDfBUN3VygFBKqFyu5832yjX2q+J0/VLanM6n83tWmPh46DFbXoQJf3+8eHFSsrRxYOYMLV/nFqaY6tZzx47uzsfBnSdxBt5wi0AqtudXQLZB5HWrzd456BfG1SIA8KCFTzkIu6h6AAsRfz75fKMF899FTP5Cf7deA4DPPj15h3UNP9VcNSt8AqWvw2hP9q1dZ3a5bkdLYVQ9hYBzc2NlryUz0LsACb7wyL53qU5XThA2CVESUs0Vq5Sp1jHhQQqOYhF3UPwZfNg/rn1WLCUqiTkxM2NrNk/07s2m+DgAsTpuSPWjSIrcdgrQTr6sup+rKsOwf59EsEtojg0c7Q/1lgZZIVwAqsMkPerat5tKpyT8Aqk6u0cpU6xzwoIFDNQy4W/B6YHUzHlOfOZ3JiNISfGpletn8m9+3h4OkwsCyphbYkA6z4r/46WLXeD4ktbSV2XMkXsGJVJYrHWfhs9z2wyu6LA+QVUr0dBFZxedDKVQXvIHNw+wLVHGRikW+BmcEMCxKKJo/DesRGrS+FOmlD0yV7NXFkjwaTMARcNCui7vdi9w73X/1jpGrTpcR2DtJchbNi+J84qe3C6dnz3Q2ASVZEBMhzvFXaQ1wAsERrMYAi95LZv3eBavbzsLB34KvXYDXII6RiGQnxUScmbWBq1Z6Pn9jDAcJPKT6qoPV7aMV3FQvrr0NVezVVtfn1xJKcGFcbl1S9qgsAv3NQ5UjIK9oOdwXIo4WVdpGHeFwAmGyqTQpkUQGBahZzTWkOCjCklV+/1HGbmhy3yalZeze5Zk9Gj+3BYC34o2I9E6hJg/PKAKGs7vQArBX7c6Rqw4upbXxmpQCINbvUykMpw//AZjsxVc9aVP29AyvXow0BVoG6vMGqRwEAyHd3d9VzSIFMKiBQzWS2KdEMZdHJ0Ll4Y5yHTsaH+oHUiakP1jOxUV9pqr+m4X4BessPKADrj2+B+SSsbPVhLbG9w+yCKi0ew/++8pQD53WODqscmWSFG0DeRmYa7wd3B7kAqO/MogIC1SzmWsHTzBAWoVewggCpebKEAKpTdJhTH+3N+Jb9NsRyqKmC+AtSW4bURksr1nfcAR4OVG1gLrGtz7XTla2y14gw/I8/+nXg9LzfAqp8nndYxV8VP1+5AGSv7Bc9xQLVopeAjN2/zwDOZ7zU+soy4zML9s/4J3vYD6QSegqfVF5ruFsatF8GANWfe6t2v69qzydSm1mt2f5x9qyrABbB/wFLRlPOg86rfOaWVa7JELlPsMrDCI3fg488MYEMFwBcKbRJgawoIFDNSk4pnQakHh4e2sLCwhcral6sqUyampqasPGpuQCp9Zn9sqQKTNsH04s0u9NbDUvsEhng7fvEFrdSSzO2UIAP/3fCT/Us1DoAO6zmpW1xWHUXKXxyaUe1SYGsKCBQzUpOKZ1hlRUf8h8dHc3PxAfCyASf1I/279iWPRqo2N13qSyosiB3pQzc6a2E2KtPxxObXU1tO0y2ykYDw/A/w9edtKieBVYgmBGbvPmsAt7s3JdWrcpGeVcq6woIVFUSMqEA1lSGrBi6ypOlI/ikEoZq6oO9Hd+yXwcrp6tNXc+SxmQa38PQ77v6AgGEMLrODuR4GCSu6//B8SJLnj6PTxt8V7GwPhio2tvZxMo7aSZ8V1mlant7u2PD/mchlfeNllWskXlqb/x+WLWKKAq0q9qkQOwKCFRjzyGlLyjAUBWWDhpaH8LyIa3sHsfDalMTUzPWM7Fpvw+xJObVY6QCH83A8X7/V2DCX9H3ToBk4/+G17KGRg/u/gADrP41WgnW1SRy10X8VD9//hwsgt20qgKrtDeNiwJkt52Z+Gb0yS2ri4uLwQVAsKpONnYFBKqx55DSFxz/Nzc3vwTmzoWFY3zcpibGbGJq2nonNuyPYSC1fZ9UoBALJ7Ezf3zLkG4ddn8dTOzP0cSeT1Tt35nE+j8mNrKY2HQptY/rqS1snu4bqS1spDZ/us+tpxb2jfqRc/2zD6v1oeKJ5dSG5lPreZ/Yq+nEno5V7fFwYr/0s5xnxX56WwnpudNTt74GC2xvRZELIoV3gJU8+n24aiMLie0dYWWL19J2dHQUZv93E1Tdsnp2Bas8wKqDKvdCuC9FAVAnG7sCAtXYc0jpCxYUQsfkx5LKilOjNjk5bX2Ta/bn8Ind77dLQQ4oZfY2Q7bEyAROsYYBpH9PJWEId3A+tdGl1KbLqc1tpLa8ldr6bs0+HdTs4Lhm1bA4zVkIcTA5+7kXPv/ejJHCk4rZ5yMLoY7Kn2oBet+vpTa+ktrgfNX6PiZhss6rqcReTCT2ZCyx34bqQehZl57d3Qe4p05YdHWN6+v4w9uKYXUnjNXqJ5Zgvag8eLm4nSMz1llpqdug2girDJW7z2oeYJV7wM/fowDIqno7ZVn/2poCAtXWdNJZt6AAjSeTJ3zIPxeW1AmG4cZCp9c/WbYnoxW7P5CGIf/zYMstpoAdr1lC9fehqv05AgTWoZBwQ2t7gKhZEgFcnFRrIbj8+m5qy9s1+7BeC5a6f6ar9nQsscfDVft1sGoP+uvwyr0JXK8PmueVn3Y/C37HfSzBmtjCRmJHlThhFf/K8/xLO/kZIOyhqxgmB1bzAqncB+0p8M29aSGAW+jg9JctKyBQbVkqnXjTCjAkheWEDiIv1tTJyQljH5patedjWFKr9nMYEiZe6ldYcX9TPuMcArb/NZZYzweG72tW3q4P0R5VLFhJI+DT74oH1lfSVU3NTqpmBydmO/s1W1hPbHQpCS4JQCvA+s29+yStBj0av9frb/XqtB5Y7X95VzXCWJFPlLGYNh5g8Vnv9ux/h16HVXcDcMjLA7TSrrJwCvFpFVs1plKutDQqIFBtVEOvo1KAzogh/0afqkx3DuOjNgGkTpfs5fixPRys2b13iQGlDhtuQf2xhwD/FXsxyXrtSfAhZTj206HZ0UktZhfCS8sQVl8Czm/v16y0k9rHtdRGF+rgyvr0TPK605uY+7iybr1cBL6WES8r3Ty6lRvLd+/7xDb24rKsMtLiw//ddgFotKwCq6zwlJc2yUepiE1NjFptUiBGBQSqMeaK0vQlZipDU3mwpk4ycWpi3IYmF+3l2GGA1J+B1FPrIWCA7yZDr3+MJPbPTNVGFqu2vJ3aPmAaJrfEBQudLKYHx3VfWiZuMVmr72Nqr6fqrgJMDANa8ctFp0aw7yas6dr1yXFYWJmQt7KTGm4dMWxY/7ACdhtS3arK0S2rjW4ADnqZfoBm2eapqTBBTVbVGEq30nBWAYHqWUX0PgoF6IQY8s9HR8CqU5M2MrVorycOwzC+Q2rwzeythM8Yan09XQ0ToT4dWOZWDepMwalD+XGlFiZrEXVgeCEJPpPog4UPgPTQSrK0dt/SyoPBT731hwYmze0fxgGr+/v7XfdTbQTVRljNkxuAW4dZsYrQX9qkQGwKCFRjyxGlxwg/wwQqb0Czba1gwsKETcwu2b+T+wFIA5yeWlLxP/1jmOHVqi1uJrZ/VLNKUguz64teFMAh4nri37p/bMFNYGQxtecTiT06BVagNVilG9wnZAntPLz6gwEhrPo/VG1n//YDrjL8v7GxEWD1NiyrtFE+wSrrD9SMWjF6hdVY4aqK3vLGd/8C1fjypNApYqIEnU8u/MDGx2wKSJ2ZtzeTu/ZoMAmrToVYp++qYcb/2GJipe00hI+KPdj6bRdMwBXfVvwlsbQOLRAntj4JLaxjfxoZQaDaeVB1KzYPWUzswy1jaRtYvT3rKqtUMfsfuLopUPX/4T9ZhhTL6szMTC6iARCuiqVj9/b2NLHqths7/f83CghUv5FDb25bAaypDEHxhJ9tKwWW1HGbnP5gPVPb9miwYj+8xdeybkEl1ihB98PEqNsWPZP/X7PPx7UQ/mp8OQmLDzwbTwJEeaxWfCvlGtB5aMW6isZPx6shVu9h5Xasq/hTMvxP0Hqsm2eH6bv9nv8FWJmIlAdYpb3FqoqWWKu1SYFYFBCoxpITSkeYQEXIGaypWZ9ANTnOqlMz1je1YY8Gju2n3sQeDlZD7FNWh2KIX1tnFKhZzT4f1lfXGphL7dl4NcSaxfIHqPqwtaC1s9DKQxcLOUyuJLZ7mIZQZJ3J0davQvxPgNEtnd2G04uuT3QS2i1AL6uuSu5qBXRjqdYiAK2XQ53ZXQUEqt3VV1dvQwHCo3z8+DHzvqmTExM2PTVlAxMlezx0HJZGZSY/S5hufU6tEsnM6TayJhOnVpOaHVeI1Vpf9hW/XyZg4Qcc/FjxC5Yv65dQaNd1keAB4G5vJUxw63lftdVPN+9bXalUwhA8oHqbsIpVlVWemD3vwJdFYG20qipcVSaavUIkUqBaiGyO/ybxN8OaSkOfbWvqeFgedXhy0Z6NHoROvPdDzZa26rFD48+JPKSwFhYZYNnY8k5qU6U0RFN4NFAPtxRCXGnp1o4Aax1W64s2/D2ZhJi4N7n4hC8KgqXzNkGV/wdUsajShmXZsgpgcw+bm5uyquahOczBPQhUc5CJebiF3d3d4MjPE312QXU8WFNGJ2bs3fSOvXmfhmHRnQMN899mGa0kFtauB1jfzLD8bN3CytC1oLUz7gD4A6Ml2s6upsGyfRN5jp8qbcdNTqg6b/gf9wMmVnkUAECPnfYsa5ZV2l8mVhEvVlbVmyjF+o/LFBCoXqaQvu+6Agzf0fhnecgsdEbjhHiZstn5DZstV6z8qRbCK93mzOiuZ17G/mD3sGbvV1P7F2Adrs9gd6ugfFivD61oieV6ciW9kaVXAVVgihn4t21RJQ1MRKIt8CH0LFpWvR3G5xYAV7iqjDVyOUyuQDWHmZqlW6KjIbg/YVG8gcyaBcI7Jo5ELNjdOzSseDc5BJqlPL/ttFYTwlyltrSVGNEXHg99BbTgyyo/1iu7BeADDKw+GKja0Hw9LnA385sJP0yoIqTdbcz8b7SuYtVlJx1ulczyBCusqswZILKCJlZ1sxTr2pcpIFC9TCF931UFsKYyZNYIe1kEVW/UWdlFjXpXi0zHLp6ktRC/dmkrtbHThQTuvauEEGIMZf/SV4/Ret1JR0X7PbD6Y0/db7X/Y30CYTfrBG1IDKCKRddhlZnzw8PDYQjd3QCy1q4B26QdGGcOgTYpcFsKCFRvS3n9bwgqvbW1Ffy6suqXihWYtOObhmVYWzYVODqxEJN1dDGx19NJmASHzyULCdSh9avVtWjgedX7xQeY3/a8T4IbTLVLQwyMymxvb9/60H+jdRVoBUwHBgZC++CwmjVXANo32jY9gGezXctLqgWqecnJDN6HB/fPqjWVRpy00/lg0emm1SiD2ZvBJNcsTc02PtdsdCmxFxMVY8lQ3AE06epqoI4bABbWV9OpLW6ldlLtzuIArKaENbMRFm/zNf6quAGNjIx8B6tZsqzyEE77hra4WGiTArehgED1NlTXfwaoI6h0loP7eyOO9QTo1pYPBdJazU6qNft0WLOpUmLPx+vD2B6L9aoWxqL+zmH16VjVZstJx2GVB0QmVBHe7rYnVDkcA3ZMRGIhAFwA+vv7v7gBZAlUfd6ARozy0bZl9S4EqlnNuYynm6dzHx5zy2RWG3DC48iamvECeUHyD09qtr6b2tQyFtbE7vVVgnVV7gDtWVhZGADNCF81ulS1g+POhmxjyU/ciGhTYoJV0oK/6uDgYIBVf7jFSpkVNwCHVSaJ8UCutu6CxkIfd00BgWrXpNWFmymATxkNeBYhFaBm8pSHb9FEg2Y5nY/vjk9qtryV2shiai8nE7vfVwnr3csloHVgdReKR0P1iAAsyNCp0G3UQUZoYgJVrKtYVpksSnvx7t27AKy8BlLxW83Cw7mDKu01VmuBaj7atCzdhUA1S7mVk7TSqdCIY13IKqiSdgJiy28rJ4Wyxdsg7FhppxbCWv01mtijwXo4JgFrG8B6Gv7r3Yeq7R50xmcVeGJkw4feYzky/M/O0Lm7ALgbgFtVOWahHSSNLBWL9VqbFLhJBQSqN6m2/uuLb2pW46a6dYHlEhlqZMaxtmIpwOT1o0rNSjup9c8l9ntjHFbFYG0pBmvwW31XsX+mq7b1uWadcAQg3mcsgNqYDqyq7MAqkMpONAC3rGbFBYCHc+6B0TAtAlCsNu+271agets5ULD/p4HzuKlZGPY6m0YaazoYOiIN+Res8J653VrNbO+wZktb8ilh4AAAIABJREFUNRucT+3xcGJ3FSGgJVBlYlk99FfFXk0lVt6pGXpeZzs8PAzWy0ZIvO3XuCIAqUQBYASG9sT9VTkSFSArbgBu9ZVV9TqlVL+9igIC1auopt9cSQGG57B6YE0F9s5CYOzvvaFmtRbiCmqTAq7A3pHZh7U0xAx9PEw4q/rCAfhlFnW2fyv3jcvET71VezmR2Mp2aizCcNUNN5zNzc0AhrFMqAKUAVU/EgVgaGjoi1UVyyqwmoU4qwA1D+r45hMOTL6qVy2p+l27CghU21VM519ZAVaQodHOakgqb6QJ7K8h/ysXgxz/sGa7h2kIafVysmoPB+r+q/VhbgHrReBKnNWfeqr2YqJqK1vA6tWKCO0LdZM2JiZQdasuVlVmzvNADqC6C4DDKiDoO+f4g3FMD/CkiTSisXxVr1ZO9av2FRCotq+ZfnFFBdyaGmsj3KxD8E6D4TvFTL1iASjIz5hwtbmbhrXuH5/6r4YYrPJfvdC6DMxjXSUE2MrO1SyrPDx64H+A0AExliNwx87QOSNKfX19AVgBVYdV2iCHVW9zmrVLt/UdPvpMXtMmBW5CAYHqTais/wj+nKzeRCOMZfK2Gtir/i/Dc7gsMOQva6oK9KUK1Gr2+Si1hY3Uej+k9qAfq2ElrHJ1kWWx6J+z5OrP7xJ7PlG1pa3EWHihnY2haB4igcEYQdWH/zky1I+PqkOqW1dpZ2ijGHWirYwVVkkXFmK1he2UUJ17VQUEqldVTr9rSwEAD/8sGuEsgSoNMjsdh2IItpXlOvl0Ljuz2idXUnsxWR/+x3KIBbHoYHre/aMNk6yej1dsKbgBtAerDEcTDipWUHXrLlZV2kKsqg6pDq2EsQJSgVm3rl71Absbv6M9pA3nHlgRTJsU6LYCAtVuK6zrB6d7t6Y6+HWjAe3GNb1RpuNTzFQV5qsqQBQzwln1fkjsz9GvwKrJVt8DOz6rd3oq9nwiseWtWls+q/ip8kAZM6hi8cUayQiNw6kfHVrdsuqwSttGW9SNNq7da3obzsO7rKpXbRH0u3YUEKi2o5bOvZICAB4hqXgKj6WxbadxprMgZqo2KXAdBdK0ZvvHqX1cT+zvycQenPqsCla/h1Usziy5CqwubadWbTEaACHjmPnvlssYj42+qrRDQKoDaiOwOqy6G0A7bdZNnEt7Pj8/rwf46zQK+m1LCghUW5JJJ11HAWbiEtIpa6BKehl6o7PTDNfrlAD9tlGBk2rNNvdqNr6c2pOxOpAx3P1LXyJ3gIYJZ8FFoi+xZ+NVW9xMrZpc7gZAnOaYZ/43gjPA6uGqWF7VIbURXHEDADqBVR6YY3rQp31kAQAe4rUAQGMN1+tOKyBQ7bSiut43CtCA0Tj7xICYGtrLrA6klQ5CMVO/yVK96ZACrG4VJlu9r9pvQ/VZ78CZLKxfLay+gMKzsWrQqnIJrDK559OnT9GGqGoEVXxpeU8b44sAnIVVLK3AqrdF3o5e1nbdxPekifQwWia3qA41CrrMuQoIVM+VRR92QgGfhYvVIGsB/t2aqka4EyVB12imwN4Rk62SMIHo18Gq3e2phMlWAtavwIrP6rOJxBY2EiP810UboErYJCAwxliqjaDKa6yq7hZ1NlxVo2WVRQIaYfUmQPSy/yA9blUl9KAWALioVOrz6yogUL2ugvr9hQpgTWVYiOEhGrTLGr6Yvie9THbQCiwXZq++6KACDGuv76Y2OJ/Y74NVuxcsqxW5Apy6ArjPKrC6uFW7EFYBVUZAmOSTBVB1qyqWybN+qo3WVSyu7LHBKu2k+/Br+L+DDYIu9Y0CAtVv5NCbTiqAXyfWgpiGq1qFYToE0s7kDG1S4CYUwCL1+ahm8xuJvZlJ7GF/1Rj6lmW1blkNbhH4rI5hWU3tPDcAQPXw8NCIMhLzzH+3rGJR5TULidA2AasXASsWV2AVOMRdgJ12qtU2rRvn8f8+/K+FUG6ilSjmfwhUi5nvN3LXWDawpnpj1o2GstPXJK3sWFOZlKHhrBspKvqTBgUIdM9kq4llYq8mAVRZYlSxV+saAKxMsJpfT+2k8u0EK+orD8jM/M8CqDqwYgGmrTwvrqpbVh1g3bI6MzPzJdZqp9vBdq5Hewk0015qkwLdUECg2g1Vdc0vK1ExLJSlYX8HVSwdGspSQb5NBXAHWNlOrWe2ao+H61EBNNnqq3UVy2qA1eq3sOohqrIw9N8Iqh4BABB1KHVIPXvkHGASQKSNxarZDlx28lxvM3FjwKKtTQp0WgGBaqcV1fWCAqxY4sNZNGSdbBi7dS1PJ43/9va2clIK3LoChA89ODb7uJaG2Kv3++uuAEV3B8C6fLcHy2piixuErvqaVcASvvFZAlWf/PX+/fswvH/exKqzsMp7dwMAVrvVLl52XQdVrVT1tQzqVWcVEKh2Vk9d7VQBhoHch8oB8LIG77a/p9HHMkGnwQo32qRALApUqmYbp7FX/xpN7G5vPTLAecuQFuUzrMt1N4DElhpWsGL4H1DN0tA/llWG/4E9rKWtgCpWV851WL3N9pY2HtcFXC7kLhVLq5GfdAhU85OX0dwJQ28MndOAZgVSgWRCaNHYM9NfmxSIUYGjEyZb1az3fRJir+K7CrQWBU7P3iegymIJL1huddvMR56JpZoliypp5QEZuKYNIhzVZcP/WFQbYRWfVfbbeOCnnae91wTUGFuN7KdJoJr9PIzuDugkWImKxisroOrWVNwVFLw6uiKlBH2jQM0+HdRsbImVrRL7pb8+yehew6pOZ4Euz++57596KmG51dKOWcJStZ93w8MylsosAWtjXNWzq1WdN/Tf+BltGKAK6N4GrPKgzyRUYqpqkwKdVECg2kk1da0wiYqO4TYayuv8J4284qaqAGdFgVrNDHcAJlv9M5PYA3xX++p7nqH0onsLPqu9ib2cSq28TdD/z7a+vmallZUQ/sknLcV+xKpKGnFBamX4vxFUcQMAFj0awHXaw6v8FqMEkIwLg1ynstKSZCOdAtVs5FMmUumTGLIa4B9rquKmZqKoKZGnCiSp2dZnrKuJ4bt6p7cS/DYvAro8f37nNITXy4mqzZX2bWNj3cqlbIGqx1UlAgAPzwztt+IC4G4AnOsuTD7B6iZHtfgvHvi17LSaqE4qIFDtpJoFvhbD5cyUZ8ifp/GbbByv8vTvvyGd3riSfk0EKHAhzvCtH57U7OM61tWq3e+vGEuOFjHuqk+wejO5b3PLW1Yqla1cZqnSUiYsqw6qWFaxjDaLq9poTfXXDrWNbgA32Rbzv7St+NpqWdUMNyiRJV2gGlmGZCU5WE8Z3gFQeXqmgfXg/g6BWTjSiNO4kn7FTc1K6VM6L1IA6yrLsP4xUg9jBbgVKZTVvb4kTCz7a2jf3oxv2fjsqi2vlG11tWTlUjZgFUhl+BzLpANou0eA1WHVLas30R77gz//RQQDHv7pI+graF9lCLio5urzZgoIVJupk7HvWm0EOO+iHQBlP/s9jQw7DQ5L5e3u7oZZqvPz87fmE9WJhtcbVsKqaJMCWVcA39XDSs0+rKVhJjwTrQDVoky0AlTv91XtyfCh/da7Yb/3rNj4h1UrlVdttbySCcuqW1VpW2mf8D11S2mrwMr5DqsYEHyCFdfrRLt52TX8f7AK48aA3y0hw7Cy4l51Xh9zts+57H3W66rS37oCAtXWtYrmTCo50EiFZ7lAnljZWeOaQPvsNAhYOgm1xCx84prydEtjAZStr6+Hp3ae3mkYmQDFzpANIUYaZ8ryGv9NnpBpPGl4eNqn8aNBwifKh3wua8Bi+t4bU+5HPlXRFG8lpAMKnCRm67upDS4k9utgPd7oz731VZ3y7Kf6BVRHDu3R23X777NFexxgdS24AZQy5rOKKxWhqtqdWAXQ+m98ghXQeJPtL+0r/QJH+goWM6CtpR/xPqaxn6EfumzH0kzfRR9GX0afRt9GP0cbTr/nfSD9IUYV+kh2+kt2t+wCwtqyoYBA9YbyiUpBJcEiSaWhElGpqGDsWCgBSnYqn0NlI1hSQRsB02eIOmACkzQANASNUEljRyPBztM1DRYNB0NC7MwwpTHxhoWGjdfeqPGaz0ZGRsLRwbTxHD83S0fSz71vbGyEvLmhoqC/kQI3pEDN9o5Smy6l9nIytXvvKiHmaJ5dARxU/xw+sl97Nuw/TxbsP08X7Y/eko2/X7MVfFaDC0D8k6xo62nTrwqqwKpbVs/C6k233fwf0NrYjzjEep9BW3zZTn9F30UfRl9Gn4bRBADGiOJ9H/2g72dhmH7T+1GA16HXwZe+1/ti+uVGCAZ83ZUBg5G2m1FAoNpFnQFTCjZASsEHiKggPDVSiahcQCQVzQHSIZIKSwX2ykxFP2/n+8vOOe93/pk3EkU80mjS8NEQaZMC+VSgZkQGKG2fLhIwXDUsq3n1XcXFgaH/P4dP7Nfebfvfs8VgVf3v0yX7o6ds4+9XbaWEG0D8PqveT9A2tzrkf955Dqv0E/QvtHm0/1lt873vaufYSh+JHvS7gDD7eSDsq51h2QVo6dsdXGWh7V4LKlDtgrYUWIYfKMzuw3nWgukg6o2FV7qz75tVsGbf+fVaOfp/FunouvCQwMOENimQZwXSmtnno5pNriT252h+fVYDqPZX7Y/hij3q3bYfni8FWP1fOC7Z47crp5bV7PisYiXkodqH8s+D0cs+A1Y5h1Exh1Xae9rBLLX73m5f9XhRn9n4eTM93OIL7LOjJX08fT19vvve5rktuY17E6h2WHWerrCcOqBS6KkEXhEaX1/USHglbFZh9N3EtRpY8oFGBgs3lm9tUqAICrAE68pOam/fJ/ZgoGp3mWj1Lj++q9zL/f7Efh+s2MOenQCqwCo7VtX/PVuy39+u2Ohs3Wc19kgAPoeAPuE6oAqkNsKqD5+rH/m2H7mo7/XPOXof7kc0RE9GR8kvrKyyrna2NRWodlBPLHMM11BoKcQUajUE3zYEseiBhQLXC3yF1ah0sBLoUhlQoGZb+zUbZQnW8WpYJIBg+XkAVgfVXwcrdv/tt6Bah9W6KwCwOjJD6Comk+IGEKfPqs9DwHp3mdW0le/PugHQV9Emq6+6Xj/lAIvFFb9iJngxaUtbZxQQqHZAR0AHSMVpm4IKpMYCZErH+Q0QeYSfsBqTDlQAXSKDCtTsqJKGRQL+nsIKmS+/1YcDVfvl7Sf74fni6V63qrp1lQlWv/5bssHpVVtcLgefVfxWY11ilRE62iy3irYCpRed49fgeowq0WcJVM/vJ9rtPx1YmeTFJC2N1nWmaRSodkBHh1QKNZVflb4zlb7dRqLV88kfGmhcNDRzswMVQJfIrALVxGzzc83efUjs0UDddzUPMVcfDCR2783FoErYqv8+W7YH/65Y/9SaLS7XJ1jFFr7KZ6xjWaXNcovoRRDa6ucOq/isur8l7af6ruv1XejnGpJf+K4KVq/fPApUr6khQ8c0JlT2xkLaKjTpvOs1DO3q53nEBAXyTpsUkAJme4c1m1hO7M/TFa2yvvzqw4HEfnm7e6FFFcsqVlX8Vh++KVvv+KrNL+IGsBLVClb0LbiTATxY6fBTdchsFUovOs+hFzcoXADUh3WmL3JQ5Qis8pBBWEptV1dAoHpF7Rjux2macBUa7u9MBW8XOq9yvoMqjYd8U69Y+PWzXCpwVDH7uJbaP9MsQ1qxn3oqmfVbfTTI0D8+qucP/bsLAJOr/vN0ye7/U7I3o2X7sFC2tXJ9ydWY3ABorxj+xwJ6EXhe5fNGWAVUAVYHrau0r/rN174QHRlhRVMm7QpWr95sClSvoB3DxUAqPo5eGFVBv1bQmLUgv2g4CO6sTQpIgW8VYLGetU816/1QNSYkYVllz85EKyC7aoDqvTeEpwJUv/VPPfueWKsA689/r9jrkVWbncNnte63GktUAKyqWFexql5lSdVmENsIq1gAAVaMLzG341lLGzFZcTXTnIhv25tW3wlUW1Xq9DyscASIZ+jYndD1BJodSCXPsIJr2L/Ngq/TC6NAymjRUc2mVlL7Y7gOqSwSkAVY/TLrf8gtqs0h1aEVUP3v00W7+/eKvRgo28zHspVXy7ZaimdhAIb/6Xeus1LVRcDq7gRYbBvdALIGhDGm1/mAhwwMJJoX0X5TKlBtQzOHVMJPUCEogF4IY6wgStO3AM0wDNYCQoeosWij4OvUQiqAK8D8emKvJpOw2tPd3kqwVmKxjHX/AqoXhKdyMD3vCKjis3r372V72l+2yY+rVj5dcpUQVrftCgCo0vdgUb1uTNXzgLURVmkn2dWHfNuHXEUPZwSOLDDDilbqf9prUgWqbejF7H6HVKDnKoVWv7l+xb+qhg6quG1okwJS4HIF0rRmqzs1659L7NfBqt3pqVjMwPoFVAdO7P6brUuH/c8Ca7CsPluyH14s25+9JRt7v2qlUtnWVm8fVM8uqepgeR50XuczruvRALCuyg2gM32WG7ZYGEBxVi9vexrPEKg2qtHkNY7QOLTzlMksyavCkn7XmUp/FR39iZYHDm1SQAq0rsDukdnYUmJ/jeCzWrFYXQEcVH8fqtiDt/UlVM/CaCvvAdYfni3bH8Dq7Kotl3yC1e1HBWBS1XWXVG0GsoBqI6zS5wlWO9NvuXWVxWZwIdTWmgIC1RZ0wkyPbwkV1p+KrgJK+k1nKvtVdPTZlwzfafZlC4Vep0iBMwocV80WNmv2YqI+9B9jCCsH1cfDVXvYc3VQBWZxA/jx+ZL99nbFhqdZxaocVrFaXS2F4224AmAswbJKP9SN4X8H2EZYBVLlBtCZvquRH5gcx5Lr2i5XQKB6uUZ2cHAQhvwpZBry70yFvQpsXuc35Bv+QZ8+fVJYqhbKvE6RAucpwAIB63s165tL7dFgYncjiwjAYgWsslW3qLY/9N9obcWqGiyrz5ft4T8r1jO+ah+X6kuurpZvZ8lVQBVApj179+5dR0NVOaT6EVjlNW4ADquyrF6//4Mj6MuIsKDoM+e1Mt9/JlD9XpPvPiGsBL46FC4vZNeBJv32+pW9XQ0ZKmO4RU+w3xVvfSAF2lbgEwsErNTs6VjV7uK32hPHBCsH1cdDlWtbVB1agdX/e7Jk916t2N/DZRt/v2rLy3W/1ZtedtXDVGHhZFKVQ2U3jwArkQZocwFVwer1+i9nCB42mPPCCJ9iejdvggSqzfUJy58RL1WW1OtVznbBstPnA6qEdrmp5ewqidnhidnn45rtHdWMjn3noGZbn2u2sVezNfZdXqfhs619vktte59z+V3991wnSWtmxq5NCsSjwEnVbG4ttVdT1RAVIIZ4qw6qfwxX7FFvfeifOKkOndc5EhXgxxf4ra7awGTZ5hfxW73ZeKsOqvip0ka61bPboMr/DA8PB0ONuwE4cHW6rS7K9WAKQlYpCs3lbZpAtYlGPOUwQxxLnEA126BK48eQWTcCLoOQsGQ1Se2oUrPt/dTmNlIbXUqt72Nib94n9no6sefjVftrtGq/D1bst6Gq/TZYDcfHI/WlK5+MVe35RGKvphLr/ZDY6GISVgoq76S2e5DaSbVm1bT+X/wfwdm1SYHbVCBJLTxs9bxP7cFAYoDibYauclD9c+TEHvXWh/47Baq+MMAPL7CuLtvrYVayWgtRAW7abxX/Rkb5AMibhlV3AygKUHbrPgF9tMQQdnJycpvVOPr/Fqg2ySKghphnPPUIVLMJqjQG7B4SpNNDLIApVlEsSyOLib2dTezlZNX+GksChD4aqNqD/q+TTwjv89Pbiv34liUqq2G/01O1O71Vu9v7dRUg1ir/fQiwTezZeDVc89+Zqg3MJTa5nNrcehossrsHNasmsrg2qcb6qssK8MD06aBmIwup/TpUtZ97K7cGrAFU+6r2x/Bxx0HVrbH/ZXGAZ0t25+WyPekr2/DMmi2trNraatlKpe77rmJVJaYq/dJNgWqjxRbLKvCGZVVuAFfvF71vkkva5Q2UQLWJRgwT45+K07NA9eoVsltPpK1c1xsDnloJS3V9UK3Z4UnNSjs1mymnNjif2L8ziT0dS+xhf8WATgC0ETzDkGhffWUfZiVfZHHiu7D31YEVcOU6XO+HN3Ww5be/DwGvdSvtuw+JjSxUbaqU2PxGHV73j7G2ytzapGrrq44rULPPR2aTK6k9Gf1afi8q6936/AuoDh3brx0e+ndQ9eP/PVkMwPrb27L1jK/Zh4XVEMIQv9VuL73K2vG3BapA63mwSlvbSpusc772pT78r5USmzdIAtUm+gCqzLJkiEWV8GvlylJDQ77RGGCFuNqw/1fgA1DX91IbX04DKNLZ3uklAPpXS2i3OuDG6wKzwC87/00Ado64E+BigMsBKwptfq77x7LCUHBzbVLW9ZUU6IQCuKd8WE2/hLCiXDZ7OGss15147aD65zCg2tmhfwfUxqNHBqgvvVqyqY9YV/FbrYey6haw0p4RxWR4eOhGhv4bLaq8xpLLBCvaV1lWr9430jfBF1qEpnnrI1Btog+z8fAFoiIKVK9eGW8TbMk3dobKrrLVrGZJYmHCEwHPn44nYSj/i/XzFBhvtDM+tbw6rIYjQHAamufhQNV+HUyCP+yb2apNLCeGnyuWVvdxlcH1KqVBv2lFAfxWGXH4dzqxX/rrD1KUzU6A6GXXcFD9K4DqptX9SjszmaoRUBtfh/94vhQmbP3es2JD06u2sLxah9USK1p1dpEAIJUlXRcXF0LfxOz/m/BTbYRV/79GWPVJVrfZ3mftvwFVRmx3d3dbqVqFPUeg2iTrAVVfMjVrFUDp/RpKjIYAX+N2t7RWn6E/tojfaRImP7kVk5V5Lus0b/r7YGk9ta7igoA1C/9Ygp/jmvB6qhqWwsRlgYgDWFoVTaDdUqHzW1EAWMWi3/+xag/7WXr1ZurLvb4kRCD4a/jIfuu9GVAFWrGsskDA/54v2YN/mGi1ajNz9eD8wRWg3NklWLHYLq+UbPb9BxscxKradyOhqhph1V976CpA1Y06Muy0Zthxi6riezdvVQSqTfQh5iaTcChMchpvreLFBMiebzxssGhDOxuTQ6bLqf0zfep7ir9oT+VGhzGvC7oBXE/dA/BzZQIXFqc/Rqr2z0xig/Np8G1d2iJSQc0IhaVNCnROgZrtHtbC0qu/D9cfnLptWXVQfTJyaI97N27EovqtdXXJ/vN0yXAF+OtdyfomSja7sGbl8qqtr5ZstXS9Va2wpLIvl9Zsen7dhsbnbWBwyAYGbg9U3Q2A9tZhNaZ+IOa0CFRba20Eqk10YvLN7OxsWFc55sKutJ0P0d5wsvpHq/6peKTu7NfC7PqHEa68c1145ffuMoBvK0OzT0br4bBmV1Nb363Z3qGgtUmzoK/aVIDIGFjxmWT1y7v6w173gBWLasWejhzY771rNw6qDq24A/zn6WIA1hdDqzY8U7aP81hV63FX11iGtQ2XAHxdOR/YXSlxvTV7ObRuf/cvWP/A7YLqeT6r7gYgy+r5fZP32QLV1hoTgWoTnQSqzSuZV7ZYjw6qrfr/pMSE/Fyzt7P1IXOG938+7Vg7AYixXMMtrRzZSRcuAvi2/hmgtRrit2JVriQ1QxdtUuA6CrD06sIGk6wYoajHW/Wy19l6Ufchfzq8b49vEVQB1v8+WwyuAD+exl19MVC28Q+rtrAEbJZtJVhX6/6mzVa48igCwOryStkmPqzZ456S3fm7bE96562vf9AGb9Gi6i4AblkFThVrtbW+U6DaWqsiUG2ik0C1tcoWM6gyo/Lz589Ncrn+FTBW2k7t9UwS1goHUrvTkd6Mr147nT/3iT+r+7UGYB2px4PFx/DjWhriZH6Nf3CpnDpBCnynALBa3qlZz2xiDwbqZa6dctrauXWL6l9Du/ZbT/nUolqf6OTWzps84ruKZZWduKuP3izb0/6S9Y6v2sTHtTDpKsRFPV3hCih1n1Z/XX9fto8La9Y7vma/vVmxH58v2X+erdhv/8xZ38BwNKAKrDK5i5UAgVXa31j7hxjSJVD9rpk49wOB6rmy1D8UqGYbVHmyJ9bgZf6plarZ4mZqf09W7ee+qt1tEuu0tc4yPhhtNd1AK5DuPq38jolYvR9Sm1hJDX9WloKtL+vapPLoKylwgQJMshqary9owcMRriitls/Lz6uD6p+Du/br29Ktg2ojFAOtxF7937Nlu/d6xf58V7ZXQ0BryUZnV216bs3ez6/Z3NKazS+tBTCdnlu10dmy9Y2XDYvsL69LwQc2TN56tmIPXs1b39C4DQ0N3NpkKreougsAR4dVQFWwenE/KlC9oJE487FA9YwgjW8FqhdXsBieRpulAUjFT2p5edmYFHfRdlyphVWlno7VY6J2z3euk53xzV0rgOu7+sIDQAIrZfXPpfZhLbGN3dT2j1gZ6yJ19bkUOF+Bz0e1sDjAnyN1y2rn4q3WQfVx/yd7+O/KrfmoNgLqea/roFm3tv4ULK0lezawbn8Prdm/o2v2ZmzNXg+v2bOBtWAZvvty2f77FMj9ah3+z7Nle/B60d4Nz9jQ0LANDPRHAasOrsAq7bDDqiYkf9+fClTPbx/OfipQPatIw3uB6vcVqxkcxvQdDQAT4VhZjIUbzttOqmbvV+vxRsOM/huK9Xi5VejmQLSVtDisuuWLNd0Zuv1rtGL9HxNb2mRVotQISaT4rOeVNH12ngI8JH5cY1W3qt07XTSjlfLY/Jw6qLIq1f3XyyG2KRObzoPF2/ysHt+1Hs6K5Vh/eL5sP71YNqAVFwF2XvOZpzP4vDbcC9EFCIXVOzJvg8Ojtzrz3+G08eg+q7gBOKzG1EfEkBaB6nktw/efCVS/1+TLJwLVbIMqK7cwkSo9ZzYQ/pYEJX86yrKnrOxU6eDwY1yg2bxjby+tdX/WSljaFXDFn/XJWGL/zNQXFtj4bKa5V1+aEL24RAFWslrZTu3VVGL33rHjG36NutifhMgC9//dsrsvv1ofHfbhzrGbAAAgAElEQVRiPQYL69PFYDV1n1aOZ62ojekHcH95vWL/Di3ZwNB4FH6qZ0GV91hWHcjkBvBtn+q6KI5q84ZCoNpEH4Hqt5UqhifQVtNAAzA3N2fnr6Fcs639mrFqUx282oO1ToJflq8VtOsB9OtuE78PVe3fmcQmlvFlZSUsTb9q0rzoq1MFarWarX1Krfd9ao8Gk7As8c9XfHC831+1B33H9vPrDfvxeXyW1EbQvO5rQPXnVyv2on/J+ocmogNVh9bGCVYeZ1VuAPW+VaDaWjMoUG2ik4MqhalVQNJ5ccAtw03z8/N2cnLyXQ4fnaQ2spjWZ/c3hGjKMjTGkHbANazY9Y7YrNWg8fJ2GoK+42ahTQpcrEAtxC8emk/DSmp3wyhHew+Q+Jdj4X88eGT3XhNDdeHLsPl1oTDG3+MK8NPLFXvcs2w9A2PRgqoDK8eRkZEvbgCC1YkvlmZZVC9uGfhGoNpEH4FqHNB5Ffh3UGUZ3MaNte4JbP/XaN2aClzFAHl5SEMAVWC1QVO3sn5YS8NCAvixpjK0NhZJvT5VAMvq/nFqkyuJMcmKctRO/eTcR4PVEOz//r+r9t+n+QbV4Of6fNl+ebVk/74bs6EIYqk2QulFr4FVLKtyAxCottr4CVSbKCVQzS6oMtuUpVMbV6QCkDb2Uvt7KglxQ9vpBPMAkjd5D2h7p7c+o5vhWJZtfTWdBCsr8WrxTdQmBb5VgDJRs6NKfXGAlxN1WG3VDYDlU38dqNizkT27/08pBNyP0RLayTT99xkTr5bsn/4pGxkm8H8cYaouglTcANyyqjirAtVv6//F7wSqF2tjAtXsgSqA6qGp1tbWDCtNfasvDdr7oR7Qn3A4NwluRf4vLGM/4cvaWx+aZeLM8Hxi8xt1t4AmVVBfFVSBJKmFBTjesDhAfxL8oC8LHQeoPho4sadDO3b/n5XCgOqPLxbtn4EPNjLKzP9+GziFwYtgMZbPh4eHv1hWgVba7auMnmX5N/JRba2BE6g20Umgml1QZcZ/o98PS4HOlFJ7OMAMf0HqbYEzllbAFV/WxyNVG5xLbWmzDqzkkTYp8FWBmm19rln/x9R+G0xCmaH8XDQSAqg+7D+2P/o27N6r+hKmnbRexngtLKo/vVyyVwMLNjQ6mSlQxbra6AZQRJ9VgerX2t7slUC1iToC1eyCKsP+jStSlbZr9mI8CVbUizq624K3ov2vwyphiO73Ve23gYq9mUlsYbMeKQA/Vm1SAAUYEGFxgLHF1H4frj9gNvpAf1N3+lN70Hdkj96u2d2/l74Jjh8jZHYiTf99umQ/vViy5wPL1j8ydRr0P67A/5dZcN2yOjMzE5ZdLZJlVaDaWjsnUG2ik0A1u6DKilQnJ/UVqQCf8eXU8HUTpMZjTSYvsG6zP+iv2p+j9fBWM6t1Nw1FZG3SOBXsq8MTs+lSYk/H65bVEF3izAId9/tTu997aHf/XjGGwzsBgrFfg/irP75Ytid9ZesdnrHBsDpVdkDVfVaHhoaCGwCwmuWh/HbTLlBtrSETqDbRSaCaTVCl8pdKJUuTekyk9V0LAcXxkxSoxgOqjdawuh8r0FqxP0YS652t2kw5sfW91KpyCWjSShXnq6NKzeY3avY6LA5QsZ/eNiwM0I//c2IPez/bTy9W7Iecx1B1gHZQ/a2nbP8OzAZQHRyMe0LVeRZWgBXLKsP/rChYFJ9VgWpr7ZdAtYlOAtXsgmq5XDYscvg9EjOV+IpAqkA1TlBthFby6M7bij3sr9q/s4m9X03DAg2AirZiK8Aic+Wd1HreV0P5wBrPQw5uJIRC+71/N8QWjXHZVIfLTh4BVa5373XJXr7LLqgCr319fcFnFauqh67KuxuAQLW19kyg2kQngWp2QXV9nRn/qW0f1OzFZPVb68uZIcNGSNLr2wdZQPXnd1+t3zxkvJhIbHI5te3PtfDw8SWYQ5P6q6/yqQB5/+mgZoNzSYib6pPz/hg+sb8GP9mdl8th6dFOAmHM1/rfc2B12Z6+nbahwf7oQ1SdZ1H1z1hutUg+q42gms/a2pm7Eqg20VGgml1Q3dpaNyxw0+Wa/TZUtTs9DcOEAtVMhOYCWLGYsUQrr8nHF5OJDS8kYclNeQQ0abwK8NXn41pYHODxcD181eOhY3sysG13/l4uRGgqh+f/Ped+l+2vN9M2NDRw6qeaveF/h1XcANxnFTeAdv0+s3S+QLW1hkqg2kQngWp2QfXTzoZ9OjB7NZna/b5EQ/4Zh3NiaAKs+Bk/Gqjaq8mqTa6ktr5bt7A2qcb6KscK8DD6frVmT8cS+23g0P54t24/YVF9VozJVMBqHVSX7K+3szY8NFwH1YzEUnU4bTwCquweusqjAWQJQFtNq0C1tcZJoNpEJ4FqNkF1fGzMNjc3bGXbQvxFrHIa0s+PBu7DSmirf6YTm11NbOtzapX63LkmNVpf5VEBonoQ2qx35sD+6ls1hsL/70kRQfWDDQ+PWZhMlWFQdWhttKw6rObNZ1Wg2lqLJFBtohOg+v79e6MwtfqEpPNuF25DQzY+ZnNL6zayWAszgZlJLlDND6iSl8Ev8V3Ffjld353lWT+u1WzvKDXFYW3SqOX0K/xW17f37d3Eqt1/vWTEF/WJRj5EntfjF4tqz5wNjU4Yfp5hharIl1N1IL3oCKjyHfczNTVleYRVgWprDZJAtYlOAtXbhc6rQP/kxLjNTk/a6IdNezFVU4D/jA/5N3vAcB9Wt5g/HsLCWrXZcmKfj7VqQJOmLYdf1ezz5z2bX1q1walV+/UNS6gCq0WwrOLqsGR/9cyH1anyAqoOsI2WVfdZzYtlVaDaWlMkUG2ik0A1a6A6blMTE+HJ++3Etj0cSOWbmmNQbYRYfFh/6qnHYf1zpGJ9HxObW68vzdqkiuurHChQq9WsUqnYzs62rZZLtryyaqMzZfurt2Q/vVi2/+TcuorlGFB90rtoQ6MzwQJZD/yf3QlVDqkcAVV2jwbgcVavYsiI7TcC1dYaIIFqE50EqtkD1cmJCZuc/mB/j+zY3d7EWP+7EWj0Ol8uAOflJ24BWFl/H05scD6x5e3UPh+bEYNTW/4UAFRZLnljYyMs9FEurdhquWxTH1bt5UDZfnm9ElwB/vN0MZcWVgfVP3uWbHD0fe5A1aG1EVbz4gYgUG2tPRKoNtFJoJpBUJ2ctInpeXs5ums/vwNSBarnwVyeP8MlgJ1lNlmalZWu+j8mtrpTs+OTWlg/vkm111cZUwBQ3d3dtdXV1TqollesXCqF13MLq8Fv9eG/y/ZDcANYzh2sOqj+0bNsA6MfbHBwyAb6+4J/p0NeHo6AKvfhPqt5WBRAoNpaYyNQbaKTQDWjoDqzaC/HPgdQBVjyDGW6t4vz131YsbCyaAAhjAbnUivt1LQsa5N2L2tfpWlq29vbtrKyEuCU5ZPZcQMAWBeXyzb+ftWeD6yGxQAAO/a8TK7y+3ncs2J9Ix9zC6oO2wArcVYZxndYjW1Iv9X0CFRba20Eqk10EqhmC1SZSDUxOWnjsyv2cmxfoFoQ/9TLYN2tq/iwPuhP7NVUYmNLiZV26kvsNmkC9FXkCmBNPTk5CcP+y8vL34AqsFoul2xttRSsrbPzq/ZmtGy/vS3b/54t5yaE1RdQfbtivcNzhQBVdwOYnJz8AqtZnGAlUG2tgRGoNtFJoJpNUB2dLdvzsQOBqkD1O2v6z72VENrql75KWOVqZjW1zb1aWMWsSVOgryJVAGsq/qlra2vfWVTdstoIrEy0Gppesyd9ZbvzYsnwW2UiUpatqw6qAHjP8ELuQfU8yyrhq7BiZg1WBaqtNSwC1SY6CVSzBaoT48S7nbSR2VV7NnZk995pRarLrI1F/D5YWInB2ld3CXg+UbXpEhECTC4BTdrDGL9KksQ+ffoULKZnh/7PgirWVdwBVkple7+wZq+Hy3b370X74UXdFSCroawcVB+9Kds/QwvWPzCYSx9VB1Q/NvqsYlllglWrQ+6xnCdQba1VEag20Umgmk1QHZ5Zs2ejxwJVWVS/s6h+BfPEsK4SHeBeX8V+G6ra6+nEZsqp7R02aRT0VVQKEJZqc3MzDPk3A1WHVofVUqls84ur1j9Rsse9ZfvxxbL992k2Y64C2MDqwzdlez0AqA7Vl1HNeMB/B9LLjln2WRWottacCFSb6CRQzSqobtiz0ROBqkC1Cah+nYSFhdVjsBIhoOd9Yu9XU9s5MMMHUlu8ChwfH4dh//P8Ux1OzzsyyWp9tRxirk68X7VXw2W793ol+K1mDVj/+2wxpPtJ36qNTC3ZwOCQ9edw1v9FwAqonoVVLKxZcAMQqLbWtghUm+gkUM0mqA7NbNhTgWpLkPbVwvgV3Ir8GRbWOz0V+30wsXcfElvcqi8akIpXm7SUt/MV/qn7+/uXDvufB6r+WblMzNWSzS2tWe94fUWrH5/ju5qNyABYUgHVe6+WbXB6wxYWlmxoaND6+vIXnuoiUPXPgVVCVzGsTzQAYDWWIf6L0iFQba3tEKg20Umgmj1QnZycsqHZTXs6VpFFVRbVtmEd6yqrXHG831e1x8NV6/2QWGk7teNKzQSsTRrMG/6qvhrVjpXL5aYTqRxKzzviCsDOd8srZZv4sGZP3pXs7suVMJxe9/+M1yWAyWB3Xq7Yv6OrtriyYUuLi4UFVYDVYdV9VmOHVYFqa42GQLWJTgLVrILqlkBVkNo2pDZakgFVrKvsxGB9MloNiwYsbSZWSZo0GvrqxhSgfV5fX/8uJNV5QHrZZ198V1fKRhir3vE1e/Sm9GVFqxijAuCi8NPLFXvybtWmP5ZtY2PdFhcXQozRIlpUz7OsEg0gZlgVqLbWXAhUm+gkUM0eqE5MTtng7JY9kUX1WqDWCG1Ff80KV/iwhpBWE1UbXkhtZatmx1X3B/Bjk8ZEX3VcAYb9r2NN/R5e624AxF1dXF6zkZmy/T1Usl/flOx/z+txV7GwxgCtTKDCPeHRvyUbnSE0V8k2N9ZsYUGg2uizip9qzG4ADqqsrKbtYgUEqhdrYwJVgWrRIU33/9V3162sRAt4MZ7aVCmxrf26S0CTZkRfdUGBarVqOzs7wZoKrP5/9s6Dq22la6P//3987y3JTb+pN4HQQnE3vYOLZDukkkLA5nxrjzggHNtAQlE5XktLch+dkTRbzzxz5mfoDLrzf/V1VVi3a00pLjXkVc6X+2M1+Xu45gDxpgdc/e/lttwdq8vUnC/Vmi9NJjZoNqXiuv6LqfSoqqKqax1gFYbVqKmrBqrnuzgYqA6Ik4FqHEF1+UhRxWdoeVQNNE9A8zJicS+D9zn4zUeFA3m9eCCrjY58+n4obTOwDriaXt5bZGIgyf/bt29/2Zt6NsDWnXeV7ABePRhslV9syosZcq/WnH+ViQJYrjv/Kv95+3XN5YHdrDak4ftuqlgD1bwopIbXDLACVqNoAzBQPd91wUB1QJwMVOMJqvmV9/LfLINiDFQvA87sN36GXVVXWT8rt2ViNUhp9XVvwAXF3rqUCDDanyT/Z8Pm76mq/L4qq6i2KJcrm75kFxvybNp3sPjHq+1rBVUg9Z+RmkyUG7K+3XDWB1dOzxTVMJyGt3WAFVCIoholVdVA9XyXBAPVAXEyUI0fqM4vLElu+b28KBuoGmD+DJiXHRP8q/8w6CpzIM/LwYCr7Z2OfP2Bb9W8qwMur7/0Fmrqjx8/XJL/i+ZO/V2wbTQ8Cfyrviys+TI958mrrCcPJjz5cyjwsF6VJYDf/eNVTe6NezJZ9mWj0pRGI1BSdb8YWKYeVeAsDGtp3lbPKsoqYIiyqlOu9ksbdV2vG6ie7zJgoDogTgaqBqqXDTb2e1cPjzcRY5RVgBVw/W/uQGYrbWl+7Mg3B6wDLjL21oUiAKgyiIpu7usGVVVYg9yrdWF2q9WtpmQWGvIy68nDiZpLFcUgJ9JGAZe/M/iK77rfOVJRn0z6Ltfrtnb3H6XVCoNqtUoeVRL+G6j2gvOowaqB6vlOfwPVAXEyUI0fqC4sLot1/ScTBm8CQC/yn8CqW0gNltmXofkDWah15OOXQzlom7o64FJ77rcYRPX+/XvX7X+eKVMV4i53feRfdaDI7FZ4WBtSXmnK63zDDbqie55pWYM8rOplDSYR6OVpDaZBDcA28L2SXYDBW1W5O1aTkUJDFtebUvMCFVVzv7JfGgcUVQPV3j7VMLQC8rOzs84CcNPKqoHq+U59A9UBcTJQjSOoLklhZUdezu6bR9Vyqd5Iii5glfyrrJ8W2zKycCBLtbZ8/mZ2gAGX23O9xTUZNVXh7HIB9OKeVt8LUloxoIkJAza2GzK/ivLZlP/IFDBOLtaKG3SlAHoeUOU798bq8rrQkMJS4EdFwW0edff3A1Ud9W+Kam9g1bigrIZh9aZ8qwaq5zrtxUB1QJwMVOMHqm5mKqZQtTyqNwJpF1Egk/5ZQPWf6WB5VgxmuFpvtOXzd1NXB1x2+77FIKrd3d3fmjL1KsEWaG01fecdJQ/r0mZDiku+TJbrMpz35EXGl8dTntwfr7tE/QquKK93xzx5MO7J4ylfhvO+TM567rtrWw2pew3njWWq117lV2g3j2pvOA2rqd3b5XL51JSrZAe4Ln8q/2Og2vd0P/WGgeqpcJx+YqAaT1Atr7ZkeG7P0lOZohoZWHezXDmF9UDyWx2pfziUXQPW0xfcM57pIKpwd3cvcIvCa5otAAW07gWDnxbWW1JcYdYrX8ZLngznavI6V5OxYl0mZxuSmW9IaaUpa1tN8fyGg17yo7oUWaTJ6rMoqIbTU6ly2A1m9vwEZjVGpVLJ2QBuYmIAA9UzTvqjtw1UB8TJQDWeoDq31pTXc98NVA1UIwOqmn/17lEOVjIEFLfa0vrUkR82JeuAq/DJW6iplzsTVX/46weF53+dwVZBequTCQmYmCDwtOJrrdbqbmFbF97n84Bu0L0f+GHP878GqicQel4gV1hFWaX7H1i9Tt+qgerJ+T1oy0B1QHQMVOMFqosL87KwuChzq3UZmf8qdy3hf2RALend/OfdP+dfdR7WfXmUP5DhhbbMVjuys9uRQ0tn1fdq3G63j3OnqoJ4HniLxmd08gD1s3pCNz6prljYdsvRdth/epHyK6jiv8xms5aeKn8xcEVZpTseWL2u7n8D1b6n/Kk3DFRPheP0EwPVeIHqwsK8uyueX6nIyOyuA9X72bbBmimrkTsGnH+VHKzTB/Kk2JaJlQNZ9tvybtf8q6evwsGzb9++CR5MwC1+oHqVyu3JbwOqmkfVQPVikIqyygKshqdcvWpgNVDtdbb//JqB6s8xOX7FQDWeoLqwuiUjs58MVA1QIweovZRXhdZH+X3JrHeksnMon7+LdDrHl6JUb5A7NTwTlYHqCZyGFddGoyFbW1suj6qB6sVANWwVQJFWZfWqbQAGque7tBmoDoiTgippLK76zsp+/zKgOBixubiyIaNzH4Ouf1NUYwFrvQAuTa/dyx7I3cy+3M+gsAYZAurvOrK3fyidlIuse3t7Tk01QO0NqAqreFs3NzcNVC/Y5R+GVN0m1yqe1ZWVFbemfb6KjAAGqgMALPSWgWooGN2bBqqXAY/X+Bvz87K4sCCLy6syOvte7mU7LpdqmoDH9jW+kx2grDLYigwBD3MH8nL2QPKbbfE/dqSdUnWVlFQfPnywLv8+I/4VUtUSsba2JiiCOkhIwcvWF1dYgVUAdXV1NbCUXUHqKgPVburq/dxAtXdc3KsGqtcImQuX818MqFpcWpLR0ltTVK3rP7ZqMlOx4l99kD2Q0aUDma913JSs7ZTJq1yD8V6ipp6Mnh+sLIbhLQ3bGhdmpWIgkIHqxaG0F8gD+6qsAqvYAC5bVTVQHQBgobcMVEPB6N40UL0ceLxOW4MD1cV5GSs1g5mprOs/trBm6vCBAKworA+y+zK+dCBMGPDhS0cOUqCwMl2qelOt278/nCuo4k8FpAxULwdUFV6JZ7cN4LLaNAPVburq/dxAtXdc3KsGqvEE1aXFeZmcbcq/hY4w6p8uVYMei0FcjwH8qy4Pa/ZAHhfaMrnaka2djnzZO0y0JeDr169OTa3Van2T3adBMT1rHwFVlo2NDTdqXQHL1pcDrJoRIGwDuExQxQf7+fPnASRibxmoDjgGDFRjCKqLC7K4MCeZhYY8L7XlQa4tNPRxhRQrt9UdxwA3Wyir5AZ+lG/Li/KBTK22ZWvnUL7/YLRVskZcxTtvan/18yzo/NX3AVW6p4FT86deDqAq6CuooqyiWAOWl5UNAEXVQHUAhB29ZaA6IEYGqvEDVZdLdWFO8ku+vJrbPwJVy6VqwJsc4MUOcHt638Hrq/m2m5J1e6cjXx2wDrigxegt1FTLm3p+4AVUAR6D1MuFVIXV8A2Awip+4N/1rBqonu+iZKA6IE4GqvEF1eKyJyMLPwxUTU1OrJruVFaU1syBvJxry2ylLY2Ph/Jlb8BFLQZvoaa+f//+uLvf/KmDgRVIZcAZI/4NVK8OVMOwqt5SvKssv2oFMFA93wXJQHVAnMjft76+LhxMv3vn9KsHsn3vorBMiqp5mV2py/jid3mQC1L+mKKYHEXR6vJ0XR57sHMH8mK2LeUKU7KK/Dg4lMOYOQJI7s8sVG/fvrUZqM6RkgqrAKBKvGirtJs6rATa9uXCq8YYLsAC8Ds2AAPVAQAWestANRSM7k1AlQTKQKqB6kWB8aY+T9L/eZlb2ZY3i7suHyW5KQ1uLAZJPgbUw3ov05bHhQMZXmhLabstrU/xysG6v78v7969s1RU54RUBVVsEqqomqp6uWA6CPSZDAhFFRvAryirBqrd1NX7uYFq77i4V+n615QfBqo3BZ4X/F+XlHleFlc2ZXr50xGomkc1yZBm+3ZyE6LAiof13/yBjC+3Zb7ajkUOVpL7f/nyRZgK1Lr7B3f3dw+6ImYMplK1bxBc2XuXA7J6Q6AzVwKrqq6elxcMVAcAWOgtA9VQMLo3AVVTVC8IipeUuP+XLQ9HoLq0si4zi+8MVM2jmlo1XXOwMsvVxHJb1hptef/lUPbb3Ve6aDynB2tnZ8dmobqAmqrAGh5MpQBlQHo5QHqeOJZKJedTVWXVQPVyrykGqgPiyYWT3HTc9fwyON00uKXx/+fn3Z0tKaoe5vZdSh9T3U5UN4tFemJxnIM1cyCP8vsyttSWjVZHdr8fykE7OgZW1FSS+5uSejElVUGVuAFJpqheH5x2A6xOuarK6nmsAKaoDgCw0FsGqqFgdG+GPaoGqvFSVpcX5yU7X5VHuR8GqqaqplZV5aYEOwA+7Tsz+y4Oz0oH8malLevNjnz70X3Vu/7nDKDS5P4Al8Hq+WEVJZV4YVEDekxNvRlQ1RuEcK5VgPUsbjBQPd/1xkB1QJwAVS4AZx1s9n70IHZpcVYKC9vyovxDHuQ7cj9nPlVTUtOjpPar6yAHawCvTBqQ3WjLVuvQKawDLoVX+pYOoFJA1bWqhbbuD66AKjN34Y1E0etW+ez59YGrwir1QNc/eW1ZBvGBger5Li0GqgPiZKAaPQAddNKH31tanJPywqaMLX6Xf4sduZc1UO0HL/Z6+gAWlfWfmWC2qxflthS22lJ/35HP3653Wlbt8ldl0KC0P5T2io3GDeDJZrMGqvnrA9N+NwEAqyqrqKqqrPbyrRqoDgCw0FsGqqFgdG/++PFDtre3B94RheHItqMDtkyjOre0IZNLu/K4GEw9aUCWPiCzOh9c5wArMbqX2ZfnpQPJbbSl9i6YNOCg031FvNznmjOV1Eqmol4MUBVaGe3PNhBkoHrzkNoNr4Ao2Rg0G0A3Ixionu+aYqA6IE4Kqr3uhLoPOHseHUilLgDVheU1ya18kKfFH3InY4qqQdtgaEtrfJy6Os2gwwN55CYNwMN6ICv+gXz6xqQBDLq6/IFXXF91lL+Cl60vBqwGqtGDU4VV9QuTvkoHWHWzhIHqAAALvWWgGgpG9yYX0kqlYopqLDMHzMnS8oqUVpryvLgn/xiopnpAUVoh9CL7DbDemTmQW9P7bgDW8/K+TK21ZdnvSPNz51KzBAC/nz9/don9TU29GJyGYV49qgCPKarRg9YwrKKqkgkgDKsGqt3U1fu5gWrvuLhXDVSjpZJeTLWel6XFRSkvbsnzwhe5k+n8NqjRkKM64e37Z/pAbg9Ybk3tC8ttlung83wHEOA3WLTb9SIwYZ81VfQ6jgGFVo7ZfwsHMrHSlhWvLc1Pl5MpQKdJBboMVH8dVIkfA35R7QxUoweqqKthWAVUdaE9M1AdAGChtwxUQ8Ho3jRQjTOoLsjS4ryU51fkv8InuZf7NVAFKB1czgSA9DAfNNxPigfyrNQWUv0Ea7b1Oa8Fy9PigTwttYXPM7Xlv4W28BsPjtIG8dukDQoD7HWAiP2HAe95jgHysPI5wJWJA17NHch8tSM7nzuyt9+RzrEj4Hij+zL60/ODgwM3TaoB6u8BKmoqPX50K5NwXoFIu55tHS1wpX7K5bLzq1JnAKuB6k+Xh54vGKj2DEvwImlTuBB0y/UXU/biDXtx3tclBlTNL8no7Cd5VDi8sIIZJEsPGukHuQN5OdeWzEZb5utt2Wx1xP9w6OZS39k9lJ3Ph/L2s0jr06FTnVqfO+69xseO1N8fymYrUKTmKh2XEmh06UCel4NBLEDA8QIUhJbzwIR9xqDzKo8Bjk29YWPQFTddr+baxwOv9n6cf9QVo/w/ffpk06T+wuxT4S5/tgFV1FTgh1HmBqbRAtN+9aGwihUAGwAprDgn7NE/Agaq/WMjgGq1WjVQjaVHdUEW5+dkYXFZZpY+yvNykKKKRvesRh1189YUM/kcyPRaW1b8jgNT78Ohm4Ly64+Lp/Bptw9lb/9Qvnw/lA9fDqX1+VCq7zqy3mzLqt+WhXpb8psHMrYcKLSU4e/JoBzOOnBkGTir7Pb+2fVrMfr1GHH+cGxiaXmUa6AHveYAACAASURBVMvwQltym23ZaAaprQZcTt2gLLr8m82mG6neDV72/GIKa7PZkGq14vKnmpoaD0ilnlh0ylWEILIC4Ne2R/8IGKj2j42BakwB9VgFPgLV0uqODM3tu1yqg0DVdb/PHAiJ0MeX2zJXa8u7L+fv0hxwKJ35VrtD0vWO+B87DoxJEzS12nYzCI0uBmoutgH8sc4bO7XvfLIoXQZeFoObOAY4l/45sq08L3Oj1ZHKTnAj9uPg5/MGK9W7d+8cpFq3/8WgVCHe91FSPWmwNFuysVWRQqEo2WzGFNUI5FDtp6KGX9ebCmAVbzGgysxs9ugfAQPV/rER9aha139M7QuA6sKizK3UZGTui5tKtR+o6uCmoTnS8nTky96hdFxangEHyBW9RRPf6RzK/sGhfN07lJ1PKLqHTrnCI4hl4Fk58L2STihQufaFWYcMXA1arxta9ZxijQ+b1FYbrY58+noo+20RTqNOpy2fP39ykGWQ+muQCqw2Gp54dPlXfFnebMrs0pbkC0XJ5SzZfxgG47INtAKq379/v6LWJBk/a6A6oB7p+md6OgPVmILqwrwsogovrclI+X0Aqn1mqALyxpcP3CCRXmrQgMPkyt8ilQ8NPtD68WvHqbzNT4euu5UpMBmwRfkBBbcceVyvG1js/9ILyRx3d45sAQy6YmDh6GJbFusd2dntyMfPu/K21XKg6uOvvASPpqqMaVn7Xt15e9e3WzJW9GUkX5P87JrkCwUp5HOmqMZEUQ1DdCaTcekvDVQHN6MGqgPig6Kq8yiHc58ddy3HvWs8BeVfBFYXF+TNbEse5hn5f3r0Pw0skDex3Ja3n88/KGTAYXNtbx20RT5+Fam+O5TVRkfmax1nFyDLAGmF/p4M7AFYGgwiLQbXdQxwPnH8/TPTlhflfZlZ+ixT803JLniyutUQ329Iq+lLw687cE0LaP7qftLV32zUpe43ZH69JUM5X269rsuzNxtSKC5IvpCXQgwhLQxsad0GVGELvNv26B8BA9X+sXFd/waqcVVTg3I7UJ2fk8xCQ/DR0VgDp6xJC8X22NKBND/GC1J/PmxRXck+0JElj+wEHdcF+3ohSJOFJeDvo5yugKvG4Lrgxf4nTaDclnuZtjzM7cuT7K48mGjIX0MVuT9el9eFhuQWfFneaMhWNYDWZgMQC7yXprSGbQEoqHT3+7JZ8SW/1JBnM778+aoqfw7VZGh6VYqFohQK8RhIlFYY7bffdPuT+5YeW1NUf27Rwq8YqIaj0bVNvj/ugjWNhCmpcYRWuv/npbRcl5GFPSHNFNAWeFL3ZWTxQEgvdRVTRHYdTtf0NJjyUrMMAODztQPXDUt37NNSkAcWcCQGbgCZswzsm+p6lDPUoPp3oDqAVPIEP83tytPphtx6XZU/XlXkr6Gq/D1UlVvDNXk27cv0XFMW1xsOwqo1X+qe71IuMVDIDRpKpT2g7mwRQQx8qdV9WdtqyHjJd6D/J3EcrsmjSU/Gcyuuy99ANZ6gDqiykFPVFNXBzaOB6oD4AKqkUiHPmXX9xxFSKfN8sKxsy9TirktaDpyRfoqBU4Dcz+OTBxwUMXur0xHZOxD5/O3QeQVr7w5lrtJ2idsBMpRVt5iv1UD9EkD9XrYtD7Jt+a/4TZ5nd+SfkaoDVCCV5c+j5dbrmtwdrcnD8aq8mKnL5GxDFjZaTmX16oBqYAtQYE2Dr9Xt49GIfra3qk0pLjXlRcaTO6M1+XOoIn+8rDjwf5n1ZKa4fORNNX9qP9UyDq+vra3J3t5ezFqW6y2ugeqAeLfbbXn//r0blWegGldQDcq9vLQsmfmG6468k6ExPZDSdseNrh9wCCTuLUZgk9HA/0AO144s1ttuAoLnpcBXCMCTAgu11ZRFi8FFjgG6+x/k2vKitCfPs+/k7ljdwZVTUoer8ndo4bX/vdyW/72sOHi9N+7J02lPhvOeTJbrUlr2Zb3SkprXdH7WVjNIyZREa0CQbqouzaYnda8hK5tNmZn3ZSjryb9v6vL3cM119wegX3OgOpKvSnF2WfIMosoZqMYBSLvLSLc/KaqYVIjxMPboHwED1f6xcQmqd3d3ZWNjw+U7s67/+MLq8uKc5Oe35WlhT/7JdGR0iXnLby4F1YDD7hrfYv9FPn7pyFqjI9n1IG/r0HwwXabL1+oGxRi4XgTY0vhZVPmHubY8L+7Ji9x7B6l/vNw+BadhUO3eBsL+eBUsqK2PJz0ZKwXAVlr2ZGkDn2bDdYU3Gg3nacXX6rrIvaC7HOD71QFL1/E9VUwDMA0GSAHgzDC1WfVlYd2TzLwnQ/mG3Bmtyx8v1TJROY4j3tTbr6synluX8uycgWqMB5ExkIo8qhzPZBiyR/8IGKj2j417hzud7e1tA9WYZwhYXJiV8uKmjM5/l0f5jszVmKc8yZ3+ZxzYXW8TCiYdQG2t7XQks96WF7PBQCxyYwJfjOZWT2saYcz2uZ/CHGTSeAak5j/K3dG6GzzVDaPnef7XcGAR0M/ib/1ntCpPZ3yXuaO82pKVTXytdcHXiofTC3lbGXzk7AI35HMNw3IYTB2cNgIPLl7cat2X7aonG9ue8+mSFeHJlC+3jlRnwJ1YaBx0/ddwXe6OVGUisyilYjy9md3KYlqfa2oqem2ZWtge/SNgoNo/Nu4dcli2Wi03oApF1SwA8VRVFxfmZH5pXXIrH+XN8r7UPhik9j70g+lhv/4Qef+lI95H7AEdQWW9r35W1uZpNWvE0TFAd/+z4g95lv3gfKdAFaP8Fa5+ZR10c6vKii+z5nyaZA549KYmr3KeTM83ZW6tJWtbeFt9qTtvaxeohoDVgeNRDtcr29b/67H2/IZs15qyvPVWCsstGSn48nSqJg8nak6BJk466KxX/PCo3h6pu+9M5+akkLck/3GGXAZSra+vmz+1d0N06lUD1VPh6P2E6c1QVefm5gxUY6qsMvJ/bmFJ5larUm19l+/W09L7YO/x6rcfh9L4eCgbrUNZqHdker0jT4rM9x4s5mntpzQm+3XX3Z8HUvfkWfaj3BtDST1/d/9FANaB6yt8rVX5v5dAcM2Ngn865cl/GV+GcnUZydflTbku+cWGLKw3ZdUBbEtq9YY0fN/ZBVoNT46Xpid0vZOjNFg8aer0pKE1rx0vR5/le27R33O/E6TbqtWbsl1ryUalJSvbb2V+velSco2X6Nb35HnGl38nPflnpO7sDv9zloejrAg9VFSN0x9DVbk3XpexQk1yRQPVuEIqgErZEb7evn3rLIY9Lrv2UigCBqqhYPTbRJbf2dmxGapiCqnOWzw/L7Nzc7K0vCJfvti8yv2O9bNeP2gfupmxlrzAHvBmpS2vzNOaOnXVje7PHcjTwg95lgNSvd9WURXIzrMOwLXiFEgGZAF7rFFeH0548iLTkNeFpkyUGzIz50t+0ZPySl3mVuuysObL4rovS+vkc/WdlWB1kzRQvqxvB15Y/LAsG5WGrG37srbNuiF8ju+wLK0H3ll+r7zsSWHJc5MazMw35E25IePllgwXmvI805D7454bEBX4cCvi0kyRrmsAmHa/98ermjwYr8p0aV0KpbLkTVGN3WxcmpIKUK1WqzaI6qwG5+h9A9VzBoo8Z5b8P57d/joIDkWcnHXMOW6P34tAp3MoQOvu3qFU3nVkZq0t/8225VkpmO+929OK+mYez6TEgNH9HXlKd3/uk9wfP/FWdsPVdT1XbysAi9qq/4vHFXi9NVQ9sg4AsnV5POm7LAOomy9zDTeAaaTYlNEicHuyjJda7rWRYsuBLwOd/sv68iLjy/MZz+WD5ffujJAfNgBP93/87ykIrQVpuk69djFQ/WuoLv9ObEu2MC/FYiEYSBXjwURxVUR/p9yM9Of7tEMfP378vYtwir5toHrOysarCqxyF8RMEuZVjR+0Kqju7LwVUo/Z43Ii0O6IfN0T+fD1UPyPHVmqd4QZsR7iYezytRqsxhtW8SYHntSDAFIngNTf86MqVF7WGljVhbytqJjBbE46QAmQJc1TsNweqQkLI+2DJfDDkrv05LW6/HP0OT6r32Xt0kcdZy1A5T3JF6vlCAD6YmAajgffvzvuy1BmS3KF0lH+VBtM9TvQeN3fRU0FVGEHemitDTp/+2Ogev5YOS/Jly9fnF9VVToD1vgAK6DKTcbW1pZQj/a4mggEnta2bLU6sux1XJ5WMgj8M7Mvt6b23Tzwlqc1fsAKpHKj8aRwIE+zn+TehOcgtdfAnzBkRWmbsobhkS74n5cjsHWA2+v9k657/a2r3Ef9D7ICTBU3JZ8vSD5nA6muGzR/9/8Y5U8bxCRCTCZkj/NHwED1/LE6/uTnz59dkl5glQNPodXW0YZWbir0xgITuz2uMgLBtLSkAPv07dBNLpDfbMvUaltGFtsOdv6ZZoYwA9c4qMxOSc135HF+X55mPzvP5d8RU1KvEhZv8rcBVVTaF9NVKcyuSrFYNFCNmeUBJVVzphqkXrzdMVC9eMzcN7qVVYPUaEOq1g+gqne1v1j19rVfiADWGfK0fncZBDpS3m7L8HxbXpTbLoPAw1xgE9A8raa4RkdxdUpqLri5eJrdlQcTvks6D0DdJMCl5b//cp7buryaXpdiqSyFQt5mo4oRqAKp5XLZTexgkPoLjYeIGKj+WtycDQBllbRV5lmNB6QCq6qq4jX+/v37L9a+fe13IsBsWN/3D+Xzt0PZ2SXtVUemVjtOZe32tGp3cxxUxySWUeP/pLgvz/Kf5cFEQ24P030eLV9qUqGVmwF8sA/feDKeXZWCAzSbMvV3u+Gv6/tAKtOkMvOZTZP6662Ggeqvx+54ilVgVbuUda0Knq2jCbErKysuh53NCPIbJ8AlffWgzeQCh1LdabupXGcrbTcY6352X5jGFXsASqtlDrhelfVepi33SeZf2HMDpx68ORk4ZaB6PWpyMGVqTYZynmRLK0cpqQxUrws0f/V/GDiFJxVIrdfrltT/N9sKA9XfDCBdmiirDNBBWTXPajTBtPuGgXqqVCo28vI3j/+r+Dr2gOq7tgCsM+ttGVvCIhCAKuDKYuB6ldDaFvKkPjpO5v8h8KS6gUimpF6nevvnq5qzWYzn1qVUnjtKSWWg+qsAedXf05H9rBGtTEm9nBbCQPUS4qiwCvgsLS25wVXaxdwNSPY8GiCLsX1zc9O6Yy7h+L+qn+C82j84lA9fDmXV78jEclteuFytbfm3EIDanZlAbcXTaorrZcBrAKkPsvvyvPhdnuffu/yjpqBej4L6MwTX5OF4VSZzC1IqWjqqqwbN3/l9hVR+g3aeqdctBdXltA4GqpcTR2cDwPPYaDSEbmVTVqMBpP1uDKiftbU1+fDhg1j3/yWdBFf4M/sHIl++MytWR7z3h1KqMMFAAKd3j2wBzt96NP98Ev2i17NPbXmQPZDnhS/yLPPW5RENUjqZkvozRF4tvJID9u5oXYayVZfkv2AzUUV6Jir8qIVCQdbX110yf4PUy2sQDFQvL5bul/b39+Xdu3dukBXqKsodUBRWWM3HevMQq3WAZcNM7pd8ElzDz+1+74j/oSPrzbYs1DqS2eg4tRVLwK2QPcCyB5xfZXXd/bkDeZ7blaczLbkzSj7Rs+egv26AS8v//TFUk/tjTJm6KcXSrE2ZGpGR/iinuuBDnZmZcc9p7xGqvn796oSra7gMpuYvDFSvoKrpsiR9Fbk6GV2+sbHhVFYOZAAJcGVRiO33XF9nraA7aN1LPdTP93ov7a8RV+pkd3f3Co4C+8mrjwC5WsVN5frxm8hG61AKm22ZXmvLxEpbXs62hbRXwYCsg+OJBswicBpeg5H9bfk3fyBPsrvydKrpIPWPV6ai3igUv/bk8cS25IoLqZ8yVcEwvO7XTR/+DNsonYMWYJNFP6PPFUL1OUDKZ/hfctmScoo2lJ45bH9MiWq9c1dz1TdQvZq4Hv8q8j8ghF+F0X8c0HgjObhXV1fdglVAF+YAZuG5bgNT/RYGcIWXMHwqpHavzwLg3wHj8P9HfVtBlRsK66Y5PmRjvcEEAz8ODuXj10PZaHYks96RofmOPCsdyNPSgYMxVFZmydKcrWkFVwXUB7kDeVzYl6eZT/LvZCPIkfobc9LfKNwlpNykpbo/4ctIblty+WJipkzthsjwcwVFhUtdh18Pf74XqNL1Hl4AyvDCKHxdAE22WbMgHOmatiEsJGkbSltLu00bXqvV3FSoWP4Qp+xxdREwUL262B7/MgcxIESyX7qZWb59++ZUVzIGcCf2/v17ZxnANsA8wCzALV0JLL7vuwXY5QRBqQV66brmpGFBuQ0DsIIua0CXkyzq8Hid5ePiw/8RO1NVjw/XxGzst0W+7gX5WlufOrLZ6khuoy3PygdyFy/r0QCstHpb6ep/mGvL8+KePM1+kAfjdQepgKYl879a/+kgmCf2+FOfz3iSLa8nYsrUMGAO2lb47IZNhUsFSxVbFCC13aCdU6EHoMQvyvWddpL2knaThTZU21TaV9paBAvaXdpi2uRPnz65doG2ge58gJRlb2/PteHY/EzguJ7mwkD1euI88F8UZDnoFWiBWk4EBVtODhY9WQBdFk4gbAYsnFC6KADrCceagUOchKxZgOLwwknKycpcxArHgDEnNrliFYg5+bkghO869UIR1zX7bo9kR4B8rR+/dqT2vuMmGVjyOpLdbMureUa6H8jfU4FN4J+ZA0myt5X8qHczQeaE54Vd+Xf6rdwbq8stEvknRJEcBIJRf+/PV4BqTV7ObElpdiFI8p+LZ0oq1FDtOgdCAU2USgAToAQmEVgUJEnnRNuj0Mh1mTZKhRzW4TaMdoy2Tds54JK2T9tB2kXaSNpKhUxda/tKW8tC20vXvamj0WsHDFSjVyc3WiJO0jAkc1JzknPicwHgQsBFQa0MXGBQcRVcVaWMC7BSXi6cADkXLnukJwLMkPXx26Fs7XRcFoHp9ba8WWnL0NyBPMwDrftusoF/EpK3Vbv6H+bb8jiHivpJnsw05fbrytGgKfOk3jTEOjX1VSWYiSq3KsVCIZaDqNTLyfWV9gGhA8EDEEUIAUCBTNoTYJI2BlHGFMr0XH8vsqcGqheJln32VAS4qHCR4Q6XrhTujuMCqFpOLqR6MeXO3R7pjAAWs4OOyKdvh1J525bMxoG8nD84yduaDwYgkQpLva3xUl3bQnorBkw9zn+XZ9n38nCiLn/bdKhy03Cq/x9Aas3lrR3NVyVfXopdgn/t1sfrCaCijNITyAMRRJd0XmVsr381Agaqvxo5+56LABceuktQI7lDphtHITBOa1RV7vrtjt4O7IP2oXzbF/n0/VB2dkUq7w6ltE0WgQO5n9mXuzP7P/lbryfH6enR+hf5T3y4Twv78l9xVx5OMqq/Jn8Pb5sXNUJWB7Is3Bmpy1DOd9OlMghIPZtxWaOkUm6EC3rj7Hpq19PLiICB6mVE0X7DRQBgpSuHO2n8q3ECVRQAvLcoxPawCIQjgEVg9/uhND50ZKvVkWWvLaXtjgzPB+B4a+rglEUgKkprkM2gIw9ybXlW+CbP8x/k4RtG9ZMb1fKjqpJ502uUVJbHk3XJLrZkdbMp8/MLkssFqZDiAqlaTryndh0NX0Fs+3cjYKD6uxG075+KAAorHiQ8q9qtHgdgpaxcYPGq4tG1h0WgXwQ4xpklq7LTkXIVm0BbJlfbMrp44FRXutfvzLRFAZY8rjpAK4DHX1dGz6eiHk2DmmvL4/y+PM5+lWe5d66r/89XpqLeNJjq/zOZgs4+9TLjSXmlITWvKfVaRebn545zdioARn2Nmsp1lO5+yyfa7+phr/9KBAxUfyVq9p2BEeBumkFWqKpcuOIAqpSR8gKrDByzh0XgPBEAWrEKfPlxKK1PbZe7Nb/ZkdeLbXlePpAX5QOXw/VJsS2P8m25lwnyt+JzDXtdLwdgg+wFKKhMdPCk8F2e5T7Ko8mG6+pHRVVIsvVNpp8KABUV9dGbuoyXfFndakiz0ZB6vSbLy0uu+xy/Z9ThNFw+QJXeNAZF2cMicJkRMFC9zGjab7kIcDeNqhoXQNVyAqrkmiU9imUAsIP5ohFgsgFSYH3fF/n8rSPvvx7KzudDqb8/lBX/UGbWO/Jf+UBIsI89gFH4AOqphdeyv6q4BgOmHuX35UVxV55mWvLPaM2lnQoGTd0cnBkYn8Q+SAFWk+czvsyuNmWrGuTIfttqupHxpHDSUfNhEIzqdngAFT1S3LzZwyJwmREwUL3MaNpvHUcAryqezzhNMqDqL7OCUX57WAQuIwK023v7Ih++HIr3viPbOx1Za7Rlqd6R8nbHpcRi5izg9VfsAoAueVEfF9ryvPBVHmc+yKOphtwdw/sYpJ4yUDwBxZuIRVAPQX7UB+OejBV9WVxvSN1DSfWk2fAdpNKjA5DGDVQpr103L+NqYb/RKwIGqr2iYq/9dgTo/mHmD+1SV9Uy6mtUVTIAUHbzWf32YWA/0DcCZMsIZs5i1qy1RkeK223JbrRl5iif6+uFtrMN4EvF53prat+tNa9roMq2Xc7Xx/kf8iy/K09nguT9KKgkjr8JKLP/PIk7PlRG8/81VJN74568zPqSXfBlq8KMgyipnrvW0APFjT0j5lWhjKqC2l0uyguoMvOT+fv7nvD2xm9EwED1N4JnX+0fAbp/UCUZVAX4RR1QtXyoqiyk2TJVtX/92juXHwE6TLEP/Ggfunyu3odDWap1ZGq1I6/myOl64HyvqK//FgILwcPsvjzMfpOn2ffy4I0nfx4pqDqS3KDxBBqvKxbEnkFSLH8P19ysX0+nPJmaa8rqdlPqHnDqie95LgE+N8UkwkdNjSOkUmbsCgyisodF4CoiYKB6FVG133QRII8eg6qAQO1WVyCM+hpllZlULA+gHcw3FYF2R+THgci3HyK73w7lw9dDaX46lM1WR4pbBzKxtCfDpc/y8E1T/hmpye3XwBEDdYKpUBVW8UTa1KjXA6wu1g5SK3J7pCZPpz3JLDRlZbMhlaonnu9Lw6monsswopDKZCnMbw/0dSuWUX6Okkq5KT8zF9rDInAVETBQvYqo2m+6CAB53GXjXQL8og6n4fKhAlNupou1gVV2QEcpAj8OOtJ4tysb1R1Z3mpJYdGTyVlPxksNeV1ouO7lpzO+PJjw5PZI3Sl7//eyIv97VZX/vQy6oumOpltaYfa61Mak/Y9TT4+694ktz/+d8mWk2HBd/IvrvlTqTdfNjxfV8+pOPUVB1XntGYDEjXycfKkKz5QZuwIDUK3bP0pXiWSVxUA1WfUZub1hDmdU1Th1/yuwMhCMsjNFLPvBVIA2ojVyh1hqCnR42JG9ve/y5cuuvNt5K81GXRp+3Xkca15DtqotWdtuyuJ6U2ZXA1B6M+vJaIHZjuryMuvJ8xnPqXz/Tnpyf8KTO6NMo1qTP15V5WeYrTqYVaBNGmRedH+6ofR/LxmsVpO7o3Uhni9m6jJe9KSw3JD1SlM8vyGthufqSME0vEZNBVJJ6RS3kf4KqijAQLapqam5DN3Ijhqo3kjY0/OnqKpcnBX+4rTmAgys0pgw2AF1+OvXr05hNWBNzzF803vKoD7OI/L7tlqtY0UOj2PY6xiGoNPbvtTqDdmoNGRlqynz600pLrdkeqEpY6Wm/Jf15PFkTR6MV+X+OJ7KmtwdC+acx1Jw63XNKYXquwzU2BMfpr6u6uzP63jkb+0ut9uvV1U3GEr9psSD2BAn4vV8ui4T5YYUV1qyvk0e1MBvqvWi69P1EaipXFMYgMSseHHr8gdUKTNq6ubmppsu9abPE/v/5EbAQDW5dRuJPQPoPnz44AYnAX4scYFVLSsXYuauprFRYEVBoKvLgDUSh1liC8Hxxc3Ru3fvXPcqxyA3TmHwOR6Uo+Dqo+IFC2mP3HYjACg8krW6L9WaJ5Wa73J4bmx7srblyfKGL/NrTSmuNN1UnpOzTRkuNORFxnezWuGB7VYh1f96vD6aDrQb+tzzI6+sfrb7t27iuZblp/J2+XoB1MeuS78pmcWmzK41ZHnDk/WtumxXPRdPFFKNO4Da3c1/qs78IHcqgzbxeMax2z+TybjrOTdPliElsZegSOyYgWokqiHZhcDjSeOKTzVuXlWgGlUV5QMfFvuhCivwQGYA87Am+/i9ib3jmEJB5SaPmyMgh5ulbkgNw89Z24G6h13gCGJ9T5p+3XVPt5q+y+Xpeb5gI8BXiQLLjElL677MrdSluFSX3KIvM/O+TM76TkkcLzVltIg3tilDedTZhuCPfTLly6NJX+6PYy/w5NZw3dkL6C53FoOX1WPPbNg3i1qr/lk3xWjIR/sTTPaBYv0ea/09Xf/vVeXIp4tfNygLtodbwzV5MBGU+79MQ4ZyDRktBvuZmfeksFh3eU/XthqyXWu4QVFNF7O6iyExdfF1gBoopv3qA6ClTre3t52aGsdBVCiqwDU+fmxR9rAIXGUEDFSvMrr228cRAOoAPlUp46SqAtfkOOxueMgKwGvABNPGkjvWFNbjKreNC0YAVYpjiGOJYwqgUTj9HUDtPm77P8fvStqkYK1Ai8/SLYBZM0hSX603ZbvGrEotWa/gjW3J8mZLFjbwxzbdvPWF5aZkFhoyBdSWPBnJ12U4V5PhXF1eHXlm8c2+yHjybDrwzj6e8pzf8+FEXUiMf2+s7ny0/4zURRd8tYMWvoP/9uEbTx5NesJvPpniP3zn0eX/+N9XWcpTl5F8Td6U6pJdbLhyL6wzSh9Qbwr7ideUgVCB3zSA/EAxHQyk/ePsuZteRsoDe3Hs9gdU6fbnGmhq6gVPdPv4hSNgoHrhkNkXfiUCNL4oCABq3GCVMpMPFgsA8MDS3QjxGoOu6KY1YP2VIySd3+HGBv8pxwwK6s7Ojju+rgdM+4PWsf81pBS617AXHI1Y7z4HzvXc96Va950qiWK7UWk5KFzaaMrCRktmV1sC4GYXGjI9awbHKgAAIABJREFU1xDsB2PFhowWThaen158l/GArAcsb2abMjWPfaHpfqu82pK5taYsbgQwDVQDoYA23l3KPQg8j/dbY/Eb+6/XDq6FXAeB1LiBKuUFsMn7yg2VPSwCVx0BA9WrjrD9vosAfk68TABfHLv/aVQYnUtDgwUg3CgrVPCeelgBc5QGU1jtBOgVAQVU9Z9y3HD8KMiEj68ob/cE2pBHVlXZYJrQYKpQZmQKz8pEAvy6xwh49c/iofWdhxb/53bVv+AS+G/x4PI7eHJZ+A+sDSwaa1cWLBBudP6JWhooywrypz3Bv1ofXCeoZ64fXAfj6EvVQVTAKnYosz31OrvttcuOgIHqZUfUfq9nBGiYUYzo7oqjoqpeVQY/0FB1wyqv0RBpVy0NEgorg65Qy+xhESACnAccDxwX2GF0FL8eN78KQXH8XqBi1n+yGijcsj720Kr9oM+az51eAugM/5aDz5C14beU4d9QVdWbymAkwC9uC5BKpgLUf3tYBK4jAgaq1xFl+w8XAe6+aZBRE+IIqyjB+GzxZfUC1TAsKLSi3ACsKKwMOjBbQDpPBnoUmKmNmzWOB44LhVNV5MPHj22rmhn/tdYvN6/UOdeQuA6gUpuCpaRK53XspvbaQPWmIp/C/6UrnJme6EKP4wQACteDVNVBgAGcoKKpjxVvolkDknkiaNc+N2cAKsc9oMLxoeAy6Fix9+IPqOE6VKsBE4gwCCmu3f6UGzWV65hdu5J57YriXhmoRrFWElwmFEW6vuIIquFMBfiz6LalAQo3SL22AROFEz6PGsui0Aqw8rALf/wPfAVU4BTllGOEuqbe9TjQY6HXsWKvJQtQtT65SUGF5LqHKqnKZJy6/SkzSjBCg6Wkiv+1Kk57YKAap9pKQFlpyLloM2IUhVJVyjAERnlby8zFWtNTnQdWtcFiDahoty8gA9AwepZuYZsvO54HOfVG441ySn0yi5nCqda1AWoyITR8bvfb5lpBl39cIRWgxlMLaHPN0pvreJ6tVuq4RcBANW41loDy0vWNqornM26gGoZoYJWGSYGkXyPV73VV2BRkAHgFVhQ5g9boHuzccNGtz7HMDQaASgMevgnpV+/2ejqAlWOBawMLifHp8o8zqNLtz2BYrk32sAhcZwQMVK8z2vZfxxGgUdcJAOIIq5QZVRgLAODxq7DaC1po4OguBlpR6QAioNXSXR0fPte6AZSyUAfqOWVwHNaNXvVnr6UDRM+qZ4VUHeUfV18qcK3eVPaJc8EeFoHrjICB6nVG2/7rOAI09AwsQKGMa15Vyo1SQoN1GQNlVGFlzW/SKPC7LHQlM12rKq0GrceH0pVsKJwS5729PaeaAqbUhXqMqaNwnWm9nQUw9n46QJZjhS5/rhOAHsAXJ0+qllVBldn5uG7bwyJw3REwUL3uiNv/uQjgcaLhR5WMqwVA/apcwIEUGqbLghAFIGwBYWsAwErc8EEquJpf7HJOKlVNAVPynKJoq99U6zZcH5dV1/Y7yQNX7WHhRlZBT8EvTmuFawZRcYPGjZs9LALXHQED1euOuP3fcQRQB+kWwwIQR1VV1WCAlRG9Orr7KsEDgFVYojEk6TbAitKBXzKc+uo40LbxUwTCUErMiB9eU2LJjQB1qXHWmwbWV1m39tvJAVbOTW5gS6VSrH2pgCoLggI3b/awCNxEBAxUbyLq9p8uAiiBKFYY9OMKqqqqciEHum8aZmggAS2AC38r6iC+yrDPNU2HH0CKCqT+UtKjcYMEmKKYhkfnGygmBxRvqi45/1jwrnMjq6AXJxU1XFbKr2qqDe5M05UzWvtqoBqt+khdaTSvang0fVy3w1kArquhDKt9CsnaWNJdrYtaBlANATXAlRsFII5FPZlxOgApsz60/OwTDSqAzn6ilqpKygA+jUdY/e6OocbxuurQ/ic5gMxxRX3SSwTwAXph8IvTtkI2+2Jqql5pbH0TETBQvYmo23+eigCqKt1kqk7GEVQpOxd09oOGCli8SQBR+NLua9aUB1BTaCXu4YUUSyiN3SAbBsJTFXeNTyhDGEIBUPWRoozqgprMwj6yAKfAg8aDNbHQ5zdZR/bfyQFUPbdY40tFhYzrKH+FafKmMgsV54qpqdd4sbO/+ikCBqo/hcReuO4IoKpygY8zqALXCqt0+6mqGSUYUTjTdRhidVtBFoAFXFEjAUKUWBb1wrLWbcAWBTO88Jouqm7yHDtC9wJ09lr4ff1fykB5AFJ8ud0AquXXte4ja+pA11GqDytLMkBVz3XWZDJRX6oCX1zXgDbQzXloD4vATUbAQPUmo2//fRwBAASvapxhlbIDrDprlaqqSYYk9lHhVlVMVTK1q521bmuXuzbuwJrGycAtGeCWpnrk3Ob45bhWXypgGucuf8oPpDILFftmI/2PmynbuKEIGKjeUODtb09HANWNBk6VyTh2/4fLvrGxEUsVj4b3Igt1dl4Q7/e7+hv93u/3epqAyPY1mhDPsamgyg1qEiAVyAZUyWRC74c9LAI3HQED1ZuuAft/FwHu2unm5WKvymQcYVUVYfyqdAOitLAkGTQUJHUf9Xm/tX7O1tGEL6uX89cLkEqPAlCHnxPAi7OaquVHTcViEwV/ujWRFgEDVTsGIhMBDPtc+JeWlmKbrkrhGmBlP0hZpbCq4GYgcH4QsFhZrKJ6DHCtYgnPPhVXP6qWmwFUbGNjoJfLHhaBKETAQDUKtWBlcBHg7p1BNXSbxzWvqoIqa/YBZZWGDNWFRg1YjWrDa+UyKLRj4HzHQBhSOccZ5R9nJVUtCyiq3GQzcNEeFoGoRMBANSo1YeVwESAFEVCHGqnd6GH4i9M25ae8TAYArCbdAmCQcz7IsTjFP06cy2SY4NwuFouxzZWqSiprIBX7AvtFnmV7WASiEgED1ajUhJXjOAKoqvg78Ukp7MUJULvLyj6Q5gVYNUiJP6RYHaa7DlFTOQbw06uSGnc1VUEV8LZ0VMdNkW1EJAIGqhGpCCvGSQQYWEU6I4AvCaCq4Er6LdQKbegMeNINPFb/8at/7fJnYg/ypergo7AyGbdtHeWPmsr+0atlD4tAlCJgoBql2rCyHEeAtCialzApsIqXDf+tAUr8AMXqLH115pPj1/Ok4ZPrN1g4Dujt0RH+cYPSfuUFVrk2cd21kf7HzZBtRCQCBqoRqQgrxukIcLHE0E+XOaCaBFhlH/DeAuB43ExZTR/8GPBGv84VSh2oum5+X6o1X+qen5g0VAqsACoLNism6jBIPd0O2bNoRMBANRr1YKXoEQEM/QBdEtJVafc/sIoPDAuAZgIweIk+vFgdpaeOGn5dWg1PGg1fNrabUlpuSm6xKeVFfPNlB3bAncJenNdYF/DZWjqqHg2QvRSZCBioRqYqrCDdEeDunq4outqSpKqyL/hVgZ+0wapTq7y6606lS7XJ0ui98L7rdvXqrguW7xowWgwu9xjg2AqOx1aT47Ah1XpDljcbkl3w5HWhIc9nmvI6V5FMYUFyuazk88mAVGAbUMWS9OnTp+7Lrz23CEQmAgaqkakKK0ivCACr79+/dyNsyUsK5Kk6Gec1+4KtgbyqqMYsl9sARwdoAEyFzsZRVyrdqNW6L5WaL9vVhmxV/FMLr7PUPEZYk1g9+A2g9uS3jryDXnT2Nal1mJz9YsrT7mMo6NrfqvqytO5LdrEpL7INuT3iya3XNXk6WZHp/IIUC/lEqKiqAJPcny5/LEiWjqpX62OvRSUCBqpRqQkrR98I6IxVSVFVAWwF7m5lNUkTAqgCqoNSanVPtqpNWd5qydxaUwrLTZlZbMrkXEvezLZk8mh5M9uUqfmm5JeaMrcefH6z2gx8gnXgNEgPpPB06n9CA194Xd/Tz9o6fVCvx4EeC7rmWKjUGrK21ZTiclNGig15NFGXu6M1+ft1TW69rsuzqapMF5akUCxIISFKKqCq1gUGUNkMVH2bHnsjIhEwUI1IRVgxBkeA3H7Mpw3gJWHWqm5YBVCxASQJVJuNQA1d3245EBgt1OVlxpOnU3V5PFmXfyc9eTDhyb3xn5f743V5+KYuT6Y8eTbtyX+ZugxlazKar8nMnO9+b36tKavbTdmqNd1AF5RWFFe6cJ1lAFA120BilfqzbjqCwVDcrNSl2ai748LzG7JRaQrHzvScL8O5uryY8eTfN3X5Z6Qm/3tZdcutkbq8mK7ITGHJpaECUhXuVJGM85ouf7zyNgPV4HbH3o1GBAxUo1EPVoozIkBuv3fv3rnu8qSAqloX2B+UVbUBoBjGFViDdD50rzZkdbshmXl8fr78O+k7lUpB4I9XFWH5c8Dyx6uq+8z/XlaOAKIifw1V5e6Y5yD3+Ywvw3lfxssNmZrzJDtfk9KyJ4vrnqxuYSVoSLVGdoWGtJq+A5XAh8hAmS6Ydf5Xm972LPiL+vvqN3U3LA3UY1+2qg1Z2fTdsTE968loCd+pL3dH68IxxvGlx+NfQzW5M1qX/6YrkikuSwkltZCTfEIGTwHbLOSA5caYnNX2sAhEPQIGqlGvISvfcQToogLgMP8nDVaBVrUBxNmvCqjiK13caMpwviG3Xlflj6GK/DVclb8vYeF3ei1/vqrKreGq3BurOQWWQTBTs03JLwbq2fKGJ2vbnmxse7JV8aRSPUk5FHhgfTfKu9sDq35Y7T6OOqilpXxaH1o/bt0IUkjhbaaeVzY9Ka/4Mj3flJfZhtwbq7sbnfDxo8ckN0B/va7L3bFaAKn5BQepcVZNe5VdR/kzQJWBqvawCMQhAgaqcaglK+NxBJheFV8VgwBUkUzKGgBnWkZgHLUjbtABLNTqvpRWmk6xAgL+HAoWQECh4HfXfwG+gMXRb7v/QJl1/4G3sCq3R2pyZ6TmwOP+eE0eTNTkyVRNhguBAjsz35DSSksW1luystVy3cH4Fet11OzePs6TrmT/OAuBAlO/ddzqMCrlPYn10YA59R6ThN8P4h8uax2/qRut35LcUlNe5315/KbmblzujNbc8fD3cO3U8chxdHIs1uTuuC+vZiqSyS9IgYFTCVFRFVhVTdVR/pYz9bhZsY2IR8BANeIVZMU7HQEurjs7O4maCKAbtIFVGuE4pa4CLICFhfWmUzT/Gq657tQTELg8UB30m8cAe2QtcLYBundfBcAMwN4dq8uD8cAj+3Tak2czeGA9eZmpy+t8TSZKnszM+1JYbjgv4/JmS9a2W7JVa7nBN2QsIHsBHlwUWF3Iv8mCJzLwxgYjzKlLQDYMVrbdOx4O+F0WhyCOGtMgxsSbm4mGq4uVrUAtzy81ZKJcl1e5ujv2Hr3xnN8UlV3tI1hMet0sBTc7FeeTHspWJFtkdH/Q3Z8kTyqwyih/ZtSyLv/TbYo9i34EDFSjX0dWwq4I/PjxwzX6AB6Dq1AIumEvrs81GwBziYdhNeqe1VbDl7UtX17T3T8cAMIgoLyJ91SJDXyxJxCjHtj/c17FqktJdO8IZPEyvso13H6NlRrypuzL1KwnM3N1yS7UpbhUl9kVAN13uTfXthuyWWlIpdZ0+Tgd1Dbwxx55ZI8Gex3DbZ90Ww503WCw3kAXN9A9VkgZ3NaVHopYqHeYbRTTmgeMNoR4Lm00ZG7Vl8ISPmTPxZ+6GMr7TrnH/3x7BL8pXmb8poHaftYxhgLPDdX9cU+GsxXJOUglR2oy8qSGlVTdpsuf66c9LAJxioCBapxqy8p6HIHPnz87C0BcgfSscgOsqqziWe1OyRQlUAkgpCmFxYbrbkfJOgsSovp+2L/YdxvLwauKA3JSGaHgAbRD+ZaMlZoyOduU7GJL8stNKa82AojFI7sVLBvbvmxWyB/rO68snkqm6MQ2AdiyqG+WesdSoWAbrIPXTvkzu+Av/F4/W8KvvB7+3UHbJ2oz3t+wohzsH/vKPrPveIbxlK5uebK0XndQWlxpyvRCU8bK+Eub8u+RSqo3G73q5iLHVPD9uss6MZqvSq6QvDypCqf4UlGH8cCT2N+6/I+bEduISQQMVGNSUVbM0xHgYksWAFKsJHFglSqr4WwAwGnUlFWFnZXNpgzlGw5Qe3WxXgQiovBZtRDoWr22x1kKHKyeKHfqiyXFEd5YfJEMzGFw170xBnlV5dGbmjyf9twgs/Ey+WObkllouek5yeM5u9aUxY2WLG3im23K+nbD5Z0NBn554h35Z/HQBj7a0/lko3PzEvh8KSMD6/COblbJV+o7PzD7yL6yz7mFppA3l+wNjydrcv8oVsSNGBJP7Bok3qcuwn5krRvWFz1mUFJJjTaaq0i2MCeFfD7wpeaTldQfQAVU8fTT5W+QerodsWfxiICBajzqyUrZIwJ0YaE4LS0tHSfQP0upjMv7gKrCKjaAarUaSY+jgmpxuSEPJ/zEgOp5wedY4TtSWQFZTXWk3dCk5FJbAYBENzU+WfLHPhj35OFEXR69CXLLkjeWPLPPpuvyfKZ+7J19la27nJ94aMeKdeejnZz1XS7Q7EJD8osNKSwF89KXV5puQoX59QB88dhyIwH8di+rW03nv8WDy0LO2/UK27zedNt8hu8tbbIwAC34fWCT/yotN91/U4bMfEMmy74r41CuKi+zLOxHsD/4gfEFk0eXfX5Agv2xuosJEOrSl4VSRumNwa/AaK86VNh9NOnLaG5bcoV5l34qScn8VUllraP8K5WKdfn3aEPspXhEwEA1HvVkpewRAdQBUqxwEVao03VcgPQ85cSDS6YD9rNWqwWjnrtmZ7opNU1BdbJcl1vDtdSBai8YGvSaqoAKYAHYql+WQV+Bz/J4ENgR5P6fS0RfkT9diq8Adu+MecHAsAnP2Q/waj6ZasjTaV+ezfjyIuPLf7mG89gO5bAm/LygZJLKK7yMuOe87gvbfIbvvswFfl1+F6sD/8F/8Z/8NxYI/J53Rpl6tO72BUBnCQMo+xgMcgr2mxgEcQmPwr+4Sjoo7rznPKlDVafcThS2JVeck3w+mzhPqoKqDgZjqmasUvawCMQ1Agaqca05K7eLALCK7wqQC6uQ5wHAOH0GiwM2APYTWAVM1bd6k3YAyoCnciQfzOpzWcrXWdCRxvd7+TKj/loU6slB8HBgH3j8piLTpS0plmal4CA1WV39YUhFTeUaR5YUpqG2h0UgrhEwUI1rzVm5jyPA7CrqV02iokpjw35hcUAdAVhRV296kFWgpuJBbMpwzgtGW19CUv8owE0cyhDYDlSNDPyyqtgOWh/7bdXzeY71oN/7+b2rVUZ/pW5Q+19MVyVTXpNCsXwEqcka3d8NqaSi4obWIPW4qbCNmEbAQDWmFWfFPh2B/f19B250kzO4KmnAqvujsIrCSqoZBkgArDehqiqoblabMpQ1UP0VgLLvXH4Xv8YUgAbKSTU2NFORbGlFSqWyGzSVy9Hlnzw1le5+lkKhINvb28JsfvawCMQ9Agaqca9BK/9xBBhcRbc4CmQSZ64CVgFxIFXXWAFcCqNGw6kn1wmsCqpbgKopqhceea5AZevLh1UA9e/hYGKH15kNyZcWpVQsSj6hgKrQTVJ/tklt9+XLl+Nro21YBOIcAQPVONeelf2nCDDF6ubmZiJTVoU9tcAq6irqscKqelava2CVy5/qeS4f6EjBc7M/4Zk08LIY3NQxoCoqmRWeTNZlLL8p+eKsFBM4JarCqa41XyrXBXz79rAIJCUCBqpJqUnbDxcB/Krv378XUjqhQGqXeRjykrINrLIAq/hWAVQU1esE1kYjSFQ/Uqi7WYEMVA1SbwpS+V9AlZy2TIk7XVqXfKEkpJ4qAKoJ7OoP71N48FS73bYWwSKQmAgYqCamKm1HNAJcpFutViLzqypkd9sA9Dm+tLAV4KrVVUC17nkyWqy7NESAwk2Civ13OuPPcffHy6rcGa3LULYqmdKKFIpFB6lJmxI1DKdsqy8VuxPnvg2e0pbA1kmJgIFqUmrS9uNUBBhEgLoI2CVVVVU4JRMAnlUaKl7TqVcZaHXV6irTY3q+J+NF5lo/manJgDGdwHjd9e66+t0kCkycUJPhzKbkSstSLBYknwv8mt1gl6TnQGo4qf/3799PXQftiUUgCREwUE1CLdo+9IwAflVGxicZVlVhBVbxppVKJSkWiy6NlQ6sIivAVSmrOo/79Kwnt4+6Xq8bVuz/0gnFQOpfQ0xVy2xeVXlTWJdimST+pJ1KZuqpbsgGVHmNm9Pd3d2e10F70SIQ9wgYqMa9Bq38fSOAX1UnA8DHqVCXxLVmAcCzCqzSeLGf5FtFVb0qZVVnpiotN+TxZPqmUDVIvhlIdhMdDFXl/mhdRnI1mSkuH3X140VNB6RyjqOmcu5//PhRmPzEHhaBJEbAQDWJtWr7dBwBYPXt27dusBHd4km1ASh86wArVFXUFvYXtRV1Fd/uZQOrG/nve7K82ZShfMP5U4PUQDcDMAaOyY57MMlBVf5+XZenU3V5k9+QXHFBCsWCFAvpUVKBVFJRYffh+maDp44v+baRwAgYqCawUm2XTkeAyQAAtaRDKvuHugKYqrKq/jVsAdVq9XiCAIBVrQG/YwtQUN2qNeVN2Ze/XwdJ1g0Ykw2MN1G/3ADR1f9wwpMXU1sylV+RUvloKtSE50cFTHVRXyozT3EO2+Cp09d7e5a8CBioJq9ObY96RODDhw8O4FAe0wCsCquqrKK+YH8gKwCNG77Vy/KuBt3/DcnOey41EIOqbgJk7D+TGXc3YGqoJuRG/fdNTcYLFckV54O0UyGAU5BL+lp9qZzLNniqx8XeXkpcBAxUE1eltkO9IsCsVSiHKI5J96sC4+pZ1QFWNG4s+FdVXVVQ/V0PK6rq26Yvsyue3B2tuWkrDRqTCY3XWa+um/9oAol/RmrycqYmM6U1l8D/ODfq0WCipMOp7p9CKucwN9/mS+11tbfXkhYBA9Wk1ajtT88IcEFnYBVKYxpAVT2rNGjYAOgmxAbAgsqKqsyMVsDqZaSxajU8Wdn05b+s75QvVLDrhBr7r2TFm+Pnj1cVuTVSl6fTnozmNiRbXJRiqRx4UVPU1a+QylqtPNh4uPm2h0UgDREwUE1DLds+ugiQrgpoSwuoqsVBB1ihptLQhdVV0tqQwgu1GWjVwVYX9a82/GAq1cxCU+6NMUvVtoGqTSd74WPgz1d4nGtye9STR29q8iqzJVPFNSmUmAY1J/mUAqrCqt5ocq7aACpr2NISAQPVtNS07adTVFEY0wKqqqoCrOpZ1dRVNHxhYGXK2Vqt5vyrv2YFqDvYXdpoyqM3wXSqpnImS+W8yvrUnKi3Xtfl/nhdnk1VZLK4IcXywtH0p+lJOaVQ2mttoGoNWRojYKCaxlpP6T6/f//e+TPTBqphz6pmAwiDqjaIxAVg1cFWF80GQPf/5rbv5ln/e7jm5l2/Srix304OCAOqt0dq8oSUU8VtyRbn3Sj3QqFgoBoaMMbNJTHh3LSu/5Q2ZCncbQPVFFZ6GneZfKo7OzsOVLVLXBXHNK1VWVXPqgKrWgJQXIkHdgCUVbUDnMcK0Gx4Uq15MrPQlAcTTKlauXDXr8FncuDzrLoETunqvzVclydTvozkt2W6sCSF0pyUigUp5LOpSt6vN4yD1pynvL+5uWkzUaWxIUvpPhuoprTi07bbe3t7TilkNHyawDS8rwroYVjVUcTaOCqwoq6qfzUMrINUVkb/e74vK1steT7jyf+9NFA9C9bS9j4j+cmH+j8AdQQfal1ezWzLFNOfzi5IsUC+0KzkUzaaX8+/s9YKqlzHGPVvD4tAGiJgoJqGWrZ9dFMMAl5hcEvrdj/PariRVP8qM9+g3uBf7R5w1QtayalarfsyWqg7tYypLtMGY7a/P9e5U0+HavLXcE3ujNbl7mjF+VDfFDadDxVAJeVU+Bi07ZMk/xoLPS/p+SBbhz0sAmmIgIFqGmo55ftItz9QBaCpqphWSNX91jyrrMMDrLobRJ5rOiuANTzQKryt0Bok//eksOjJo0nfQSqQYvCW1hgApyf7fn+8Jq+ydZkubUq2OCeFQlEKeSAVKDNQ1fNv0FphlZtHrm32sAgkPQIGqkmv4ZTvH/lTd3d3nSpId7aB6sIpVZksCCzAqnYrhhtJGkV9HV8roLu6uuoUVhQdPKwKqawVVDe2mzJaasjfwxWnrBqonsBaWmKhKurfrxkk5clIdlve5JYlW1iQoks3lZeCSzdlgBo+587a1nMSCw/XNntYBJIeAQPVpNdwyvcPxQHlD+XQFNXTkKrQTiYAhVUawV4NpTaOQCsKK59nwoBKpXI8aYBCK15VtotLvpupyhTV9EDqn0MVYQrdv4ZJM+XJs6mqvJxak8n8qhTLi1IuFaVYyAYDpfoca72OP3vtxAbAucjCeUjif1NVU97IpWD3DVRTUMlp3sVv3745oEpjSirt5j9rDbACq/1sAL0ggYaSNDl8hwwBNJia1qrZaMjblu9mqnqZbcjt1zX50zIAJNb+4JRTB6c1+WcEQK3JkzcVGcluSW52TQrFkqWYCqWY6nU+/cprmUzGnX9fvnxJ8yXe9j0FETBQTUElp3UXDw4OpNVqOQhT9fAsaEvr+wBn2AZAwwmM9mtAVdUBVlF2sAVgCXCw6tJaMaiqIcXllkvg/r9XFWHEd1q6vdOwnwCq+k9vDdfk7lhNXszUZLK07br38/hP3aL+0/7HU7/jzF4/UVK7Y0HvBucd55zlVE1rK5eO/TZQTUc9p3IvUVNJYA98Gqie7vbvB+TAqk4KoN7U7gYy/Bxg5XOsAVaUa6CXuDebvmzV38rzGd91B5MzMw0Al4Z9BFK5+WBih8dTvrzOVWUityoz+flgulPNg4oHdcANT/hYsu3+UNorNnqzyPn2+fPnVF7jbafTEQED1XTUc+r2knmw371751RCg9TzQarGiUEaACtqDY1hr0ay12t8lu7IQOmZlbXVZVlZXZPJ0pY8n6FLmCwAdfljqOYmA8DPmAaoS8I+uu79oaoXujlGAAAgAElEQVT88aomfw7V5N64L0+mavJyelPe5NekMLvkblSKLgdqxkbwX0FXf69zjvONXg1U1f39/dRd522H0xEBA9V01HPq9hI1dXt726l75k89H6iGVVYdYIVK2quBPM9rudyR0lqek+zsuozmKvL0zZY8GK/I3dGqy6dJXk0SwONhBYaSAHVJ2AfXrU+9HC23R+pyb6wu98cq8mh8S4Yy25Ipr0uxxFSnOZcDNUgxdTFV8DzHkX2mf0y1N4Nzlymi7WERSGIEDFSTWKu2T+6ijSpo3f4Xh1QF1ot4VnvBhHZNFkjmXihKLl+UbL4smdKaTBQr8l+m5oD11usTQA08jzWD1lDu0esC3+BG4STv6a3XNaFu7rjk/HUZK9ZkprQhmfy8ZPMlyeeZ5hSIQnU/v/Le61ix1/rD6Fmx0fOMG3N8+fawCCQtAgaqSavRlO8PeVO/f//u8nzSla3d2Qpftj4fuBI3vG+qrPbLs3pWI+rexz6QC1ISMQNRqVSWQmne+RknZhZkNL8hQ7m6PJ5qCHBE17IprCfwftWgeqyevkJBBU5r8njSl+GcJ2O5TRnPLsl0bkHypXkplspSdP7ToE4NUH8dMM917pzDQgCooqxybcPuxDXQHhaBJEXAQDVJtWn74i7SOzs7gs/SQPV8UDoI3rthlUbx9xtYuoqzgp+xVMhJaXZe8rOrbjDOq6k1eTG1JU+nPLk3Fva0aje0ZQ/4XXAFTOnS/99LBkQBpnV5MOHJ06mavJjalKHpNXmTX5V8eVVK5XkplQqh3KdZU0/PAY+/f46cH4BVUWXNIEbLAGANYdIiYKCatBpN+f7s7e25JPQGqb8PqWGAvWie1Qs11A5+ycvKUpRCeUky5S15ndmWJxNb8nC8IvfHq3JvvO7ydDLS/E/nbQ0sAqoI/i7AJfH7GhsUahLxO8V0pC53nd+0Kg/Ht+X55JaM5rYkM7shxdlFNyiKurAu/fPD4oWO9ysCXVRV/Phv3741VTXl7WDSdt9ANWk1muL9wZ+laqoNoLo8UFUbQNizqirOpTTQR6AKGBVYCgUhB2c2X5BMAU/rqkyVtpxHkjydD8dJLF+V2yM1N5kAXdXAa9jfCqAlETwH7RN5ahVMGaSm8Qi8pkGX/u3XFXk8WZfRQt3FNFNckly+JLlC0cWc2FMHx5B6KQp6vIDvUo7pK4LRQWXjnKT+1tbWhMGk9rAIJCUCBqpJqUnbD+dN3dzcdF3+BqqXB6qqrGIDAFZZ41mlYRzUcP76e/zuiae1WCq53Jz50oLztU5mF2QityJj+S0ZztVcntYHE74cZxAYSp/Segyorls/8PkSj3vjnjyd9mUo58loblvGc8sylVuQbHFOiqVZKRWZ0jSwYuAjNs9pvKE6SA1XdqoqKfrsYRFIQgQMVJNQi7YPbr5rzZs6OzvrBhYoYNn68qBVYZWYXi2shoEhUPjwtbLgay2XSlKaXZBceVmmi2symlmR/yZXnb/1+TSDgTwBXv8Z9eTv1578MaT5W8kFqn5X1tFOi6UASjk1VRTlZ8FfSlf+36/pyvfk30lfnk3X5b+Zqvw3tSkvp1ZkZGZFpgqrksNvOrso5XLJeYMLeXKdGpj++s1U+PiMzjagyj7h0d/d3bWWwSKQiAgYqCaiGm0nmO+aOefppjY19fLAtBfkK6yy/p08q78DCafTIoX9rYuSL68FVoF8Rf6b3pLHE5vycGxLHoxtuxyuzEV/fzzwad4Zrcvt1/UjNfYopytZB0ILsIjHUzMR0KXuFqYQPV6CQV6nut+P3wt/7mQ7/Jvh/wNIj/2kr+tCDlPK6Xyl40ycgLe0Kg/GKm6/nrzZlKGZLZkobktmdlOKc8EgKDc6vwBEnXTlW67T6EDl7xz//b5LLwewigXA9313A2+tg0Ug7hEwUI17DVr5hS6uVqvluqQB1V5wZa9dHrwCqCzh1FX9Gs6rff0EwML+VgZk4XHNF0ou32c2V5SZ/KxkisuSKW3IVKkiE8Wa82m+zNTlyWRd7o1W5dZwRW6/rrrcoep/vf36xAcb9noGvlh8sIE/9nzrwDfb/Tv6H6zJW+rKMFyROyMVeThRk2cznrzK1mU0X5eJUlWmStsyU9qUTHFVsoUFyebYz8DXy36z/8Ujryk5bI9B9cqsGsmGv6s9hi8/duofX11dNVXV2sdERMBANRHVmN6dIGegqqkoqQaqlwekZ8G9wirr67MBnNWwa35PVKWc6+bGg1ks5p36WyrNSqE0J/nivOSKQS7Xqdy8TMzMy3h2USby6zKW33D+17FCRUbyFXmdr8lw3pNXeV9eZn15MdOQp1O+/OvsBZ7cH/fkzliw0AXPDE54Q+9P+PLgDQs2hLo8mvTl3ylPns005EXGl1c5X4bzvvv90XxV+L+x/KaM5dZlPLss4zNz8iY7L9P5eckUFlx588U5V378pcViSUpFUkfl3OK68vGZmtf0irzTZx170XkfWKW3o1aruRv59LYQtudJiICBahJqMcX70Ol0XBcXsASkGqheH6hqrFFWgdrowGo/YAhB7JHf1eVzLRzlcy0VpFyedXldi+UFKc0uuTns8+VlyZVXJFtedbNq4YmdzK+4vK9j2VUZzazK68yqDM+syEhm1flCRzIrMnr0Hp9hGc+tykR+1XlGp1FDS3hHV4TfL84uu//Dd1sqz0q5XHReXHLNFguBN1c9usdAetyl329/7fW4qaGXWV4sAAx+/PTpk1kAUtxGJmHXDVSTUIsp3QdVU0lybQOorg9QeymtNIi8flOe1Utr4EOpso67zI+BsIfVwKXTyh+rmkEuWJ4Hi0u3pWm3jtZn/W6eNEM3kN7o0mJoZY+EoguocvPI1Ko2CUBKG8mE7LaBakIqMo27sb+/L41Gw3klVd3rBVH22vVAbCphtZAXfKDnWc4EVIAYUDYvaSRALwngDqxyE//x48c0NhG2zwmJgIFqQioyjbvx+fNnl9zaRvlfD4ieBfzYL8KwenV5Vq1LOwkQZftw9cdxJkMasrxTVb9//57GZsL2OQERMFBNQCWmcRfoykJNBZ5MTY0GqCrIAqvUidoADFivHkgM+izGvY4BzQCAqsrUqvawCMQxAgaqcaw1K7N8+PDBqakGqdGCVGA1rKzikevVgNprBlZ2DFzPMaCwyqx9e3t71npYBGIXAQPV2FWZFRhvar1ed4n9DVSjB6rAKqoq2QDCyqqByfWAicXZ4hw+BhRUORfJN80gVHtYBOIUAQPVONWWldVdZFVNtbyp0YTUsKqqacNMWTV4CsOTbd/M8bCxsWGqqrWjsYuAgWrsqizdBcabWq1WnVKHQmCKarRhVW0A1JPCqnlWbwZSDA7THXcyAHBzv7OzY3lV092Mxm7vDVRjV2XpLTDJ/d+9eydMDWh5U6MLqDqoStfAKgvPgVUD1XQDkwHzzdQ/512hUHDe/q9fv6a3IbE9j10EDFRjV2XpLTDpVUheDfCYkhofUKW+VFllW7MBGLDcDLBY3NMbd50EgAwA5lVNb1satz03UI1bjaW0vFxU379/fzxAx0A1XqBqsJpeODIwjk7dA6rUB17VL1++pLQ1sd2OWwQMVONWYykt77dv30xNXYgfnAKouujNRXc2ALMCRAdkDCqTXRecayxYcJrNZkpbE9vtuEXAQDVuNZbC8uJNZQAAKY9sFqoT8FMAjMtaQRUbALBKXWIDMFBNNhwZ/EarfjnfUFZRVW22qhQ2qDHcZQPVGFZa2oqM8R9vKqCjsBMXOLNy9gZr9axSn+ZZjRbIGFgmuz5UVWVAKrP7IQTYwyIQ5QgYqEa5dqxszvBPkmqdltPArzf4xS0uACp1CrCirDIa2QAp2YBk9Rut+kVVJYOKqarW0EY9AgaqUa+hFJePAVSoqUz9x92/qanJgFSgWutSldUwrJoVIFpAY4CZzPrIZDJSLpedV7Xdbqe4pbFdj3oEDFSjXkMpLt/BwYHrmlI/Y9xUQyvvYLBWWO1WVg1UkwlGBrzRqlc9z1BVLa9qihvaGOy6gWoMKimtRSR9ytramnlTQyPnkwq/qqyinJsNIFpAY4CZ3Pqg+x9VFXuVqappbWmjv98GqtGvo1SWcH9/33VJqYcxqYBm+3WiuqKcq3oOrKriY6CUXFCyur3ZutW8qqiqu7u7qWxrbKejHwED1ejXUSpL+OnTJ1lfX7dZqFKgpgLr2AC4KQFUWauyCqwasN4szBhMJjf+en5xY+j7vs1WlcrWNvo7baAa/TpKXQnVmwq8qI/RlMcT5THpscCzyqIDrLQxNWBKLjBZ3d5c3aKqsmCzMq9q6prbWOywgWosqik9hWSk/8ePH52aaqCaHjjthm+FVVVWDWRuDmQs9smOvd4IMluV53mWVzU9zW1s9tRANTZVlY6CoqbW63UbQJWSLv9uQA0/72UDMGhKNjRZ/d5c/aKqcs6ZqpqOtjZOe2mgGqfaSnhZmSEFbypdUHT7hqHFttOnrmomANRVlFUgRtUfA5qbAxqLfTJjD6iiqjJbFYKBPSwCUYmAgWpUasLKIXt7e1KpVGwWKlNTj29SFFZtgFUy4cigNzr1yk0g9bGysmKqqrXHkYqAgWqkqiPdhfn8+bO7SJqamj71dJBirrDKZ1BWi8WiZQLIRwdwDDaTUxeqqr57984yAKS7OY7U3huoRqo60lsYuprevn17PPf7IHCx99IFspq6KjzACjhSBchAKTmgZHV5s3UJqHIjSM/Wjx8/0tsg2Z5HKgIGqpGqjvQW5tu3b24QFRBqKanSBaLnvfFQZRVgZTYdhVUD1puFG4PL5MQfUCWnKt3/9HDZwyIQhQgYqEahFqwMblaU7e1tp6gaqBqo9oNXhVXWBqvJASSD3WjUpd70cQ2m+98eFoEoRMBANQq1YGVwo/11Jqp+kGKvG8ByDCissq15VrWBNeCJBvBYPcSzHjiPWOj+b7Va1jJZBCIRAQPVSFSDFeLDhw/CfNMGowajZx0D6lkl52O3DcAAKZ6AZPUWnXoDVLEAMKWqPSwCUYiAgWoUasHK4GajIn/qWZBi7xvI6jGAsqqwGs6zatATHeixuohfXRioWoMctQgYqEatRlJant3dXdnc3DRQtRyqFzoGFFbVs8pAEOCIxtYgKX6QZHV283XGucNC4n97WASiEAED1SjUgpVBvnz54lKiABw2mMpUU1VNz7PmmNHUVeTgBVYNVG8eeAw641kHBqrWIEctAgaqUauRlJZH01MBHJbw30D1PICqn1HPqgKrwWo8AcnA9ubrTSGVqVTJa20Pi0AUImCgGoVasDK45NJ0NQGqpqgaqCqEXnStnlWFVeDH1NWbByCD0HjUAYOoqCtu+t6/f28tk0UgEhEwUI1ENVgh2u328cxUBqoGqhcFVD6vx003rBqoxgOSDGZvvp4UVBnYagn/rV2OSgQMVKNSE1YON/Lfuv4NUs+CVIC01xL+HooQC59L6wAr7cbttTYovHkojGId6MxU1WpV9vb2rFWyCEQiAgaqkagGKwQRYECVpqhSdSwMH7ZtENsLUPU1PT702AnDKgnM06as9gJUfS2KkGRlunl4zmQyx8n+O52ONUwWgUhEwEA1EtVghSAC3MFXKhWXnkhhQ+HD1umGVI4HfKfAJzczW1tb7lghpRnP6e7nM+RT5XO66HHEmgEiwFASgFX3gTUqGAuQoQuvs7/EQTMisOY84jXiwGcNDm8eDqNUBxxHHB+fPn2yRskiEJkIGKhGpiqsIAcHB9JsNo+hw+A03XCq9Q9kAllAqed5bpAHeXe/fv3qGlTmJGe6x3q97gBW4XVlZUV0YdYzfkNhVYGOtUKeAh9rBUEFW56HF4WL8Gvn3dbv9lrzG+FyhLe7y8xnUYrL5bKDdCAeYGdfNzY2pFarubgQHwbG7OzsuIVBi0xXTCx0X/mtXuWx19IDsnoMcPyQhcUeFoGoRMBANSo1YeUQupp0KlXu6hVUbJ1eYOU4AL6ALsCUQXeHh4du4ZTRbdYcP9zs0Mh+/PjRDc4DYAEzFkAWiAVeUV4BPGAN2NMFP6suvSCNxvw8S6/vnvc1/X8tE2vKyUKZKTvwzn6wPwqknDvEaH9/38WCeITjE94mRnyP32N/ANbzls8+l0x45RjgGMOfyjFkD4tAVCJgoBqVmrByuEaVhhY1iMbYADW9gErdA6mooKjsP378uNAZotAKuLLwfZbv3787kMUPTfcmKiMwi1KL7YRjDwDUzAGolJSDpR/YhkFSgVLXHMcs+hus1Y7APvL77GN4Qe3E2gAwANdANjktUUUpM2VnATaxywAVADz7fJEH3yO2lEeVVYPQZELoeeoVxZ5jAQX+osfSRY47+6xF4KIRMFC9aMTs81caAaCCBpoLZrhBN2hNF7RS98AiIHWV6g4qI5DHfwCxACBpeQBCFEoWAFG7zgFGwDa88Fr3ot3srLXrXX8nvNb/0LWCKDdslAe45py4KnDgt33fdxAOqJwHaOwzyYRZ6p9zjmOP88IeFoGoRMBANSo1YeU4jgAQgKqF+mSAmi5Apb71BgU18aJK6vFBZBvnjgCq7Pb2toNUtTUYjCYTRvvVq9Y7VpKrvDE890FpH7QIhCJgoBoKhm1GIwIMlKHrs7ub1KA1+dCqkEqDaQnHr+98JNZkTwBkgJZ+QGOvJw9gFVK5viISmJp6feed/dP5ImCger442aeuMQJ0xdLli38PcFF4MVBNB6jS/UiX+VV1d1/joRybvyLW2Be4OTRYTR6MDrrBUFBFVUdNNVCNzWmbmoIaqKamquO1o/ikUFWBVLMAJB9QtcufmxPr8r+ZcxVIYVAZg8YsC0A6YFXrmfMOn7Q9LAJRjICBahRrxcrk1DQunOT0A1QNVpMPq9yUMOoe64c9biYCDOCiDkiRpRAzSI2z9+INtAygImsFmSXMm3oz55z969kRMFA9O0b2iRuKACOS8UwBq2YBSDaociPCADq6n6l3e9xMBOj2JQctCpuBarwhdNBNRNiHzPWVHix7WASiGgED1ajWjJXLRQBoQVklt6TlVk0urAKq5DFlBLo9bjYCeMSZDAClDdgJQ80g+LH34gO21CmqOTeH3JiYL/Vmzzn798ERMFAdHB97NwIRYKAHo5Ix++NlBGpsgFUyoFXrkRHn5Be1RzQiQD5Zbg51oI1BaHwgdFBdoZLT3c+EFGTWIG+vDVqMxjlnpegfAQPV/rGxdyIWARpPlB5GhQM4Bqzxh1XqkW5mks5bztRonXBMVEAvBuBjqmq8QZX6A1JZc85xHbXu/midb1aa/hEwUO0fG3snghEAZkhdhdoD4HDR1cXSV8UPXKk71FTLmRq9kw0bBrPEYQEwv2o8QTWsiNPVz1S9+P5t4FT0zjcrUf8IGKj2j429E9EI4FtlZDipdFRdNUiNJ6TScDKACl+kPaIVAXyLdA1zQ2iKarxBlRtCbjq4IbTBitE6z6w0Z0fAQPXsGNknIhoB1FW6J7kAK7CauhoPYKWeACB8x6REskc0I8ANBKmLsACYqhoPWOWmAh8q9UVOXPJRc520gYrRPMesVGdHwED17BjZJyIegW/fvjk7AIMDFFjxr5rKGl1opX6wb5DRwQZzRPsE44aQ3KqmqkYbVKkf4JSFwVKkncL7zfXRHhaBOEfAQDXOtWdlP44AsMPgANQfLtBAqqqrrA1aowOtWh/UlXVDHh/Ckd4gI4NaAAxYowWs1Icu+Im51jG7G9dDSzsV6dPKCnfOCBionjNQ9rHoR4CLMoMEyAvIqFYdbGWQGi1IBVTp8ieLgz3iEQEsAMAPGQBQ7AxWowOrCqn0UqgP1QZLxeO8slKeLwIGqueLk30qRhEAWOnu2tnZ+f/27mU3thoIo/D7vxpDxggJkJC4zRgxCVoNFfrkhFx3Lvb+Wmp1Oknv2Kvs7N9V5fKliHyCtRy78eQRrh8nXLNBHu88dEL+C02qm5vLBsZsp1zVx4vUxOmE+ctDLTVDHupa80lrn06AUH06K7+5GIEEa167QsxTziqvQ0+i9f3FatxbNJQ3Z2PHYpPp5uZSmaHFn41VHydUR6D2OnmoVT9RE3W9+aTFTydAqD6dld9ckEBiNc9dZVlKB+jIwDyqCVVi9f3E6iwQ8vwI+S84kf5tchur2rRYTc7E0kOnIPnZcYL2WqCWh9r/rsL8zaX+x3kgsDMBQnVn6+rbLYHEajfZdpl3prz81fcTqS0MEqotEgpPqpl6OyyX/KJFX/OnEkjE6HFi9CGWI1TzopbfXR5+eahE6pJTSKOfSYBQfSYwv742gakOUJH5vHt5JqQCvJ1ovfZatxnHJo+150+tbw6VvlFuZAKKZ/VtxOqI03JRJw+1/1vKTa0/h/TgeQQI1efx8tubEJh0gMRT+avj9bPR6ljRmlDtWbi408Q89iDQIQ0Vks8LSKgeK1SvBWph/jawlYdKoO4xd/Ti+QQI1ecz84lNCBQ2q45nx0SWDtBhAZMScO0JJF5fJl5HpHZMaptwWhx47EOgyg3ZOGFFrL5erA7HXssBju2UcTN39pk3evJ8AoTq85n5xGYEugm0C738yTx/I1YJ1JcJ1OE2u/zzWjsmdbNJc3NzSeMoBSCvX+Hph3Is/exxITtCdY49bQFdXr0HAmcnQKiefQTo/y2BNvkUnp5yVnk0Zrf6iC+vTxevsSutIqY8QrfDbKsvKotUaDoPILH6uBi9K9gTp3FrY1obpVooy0PdaorozAEECNUDILrEXgRKB5jTrboJj2AlUp8nUgv5//rrr3b57zU9vuhNi7vSOpobqgA8XaiOQO01gVraUZEH9VC/GF7eIHAhQKgaCAjcQ6D81Xaolw7QppFE16QEJFyJ1odFa97U8uuELu8ZXJt9q3lSjreNVY8L1Qnv9xqvyUMVddhsUujOoQQI1UNxuthuBPIYlV+Z16hyVolVIvX/ReqI+EL+1az1OAeBaqtWJ3eE2N0Qt/f/iNjhM2H+Ijct5tRDPcc80cuXESBUX8bNp05GYPJXf/nll0tOXoKsoyRHmBGv/4jXeEzIvxQKj3MQKAe5NI8E2HgLidP/PKyTh9rGs+++++6SB6/c1Dnmhl6+ngCh+nqGrnAiAomvyvIU6syDlDArzE2o/nP6VBxiY5f/iSbFv12d2qo2Vv3nPU2g9kygtoDrGOfC/Dyo55sfevxyAoTqy9n55EkJdJMpXHedDpBgnecZResI9rxFhYHdiM85OSqp1PifEPcZvarT9/EsF3kpz715ofrFOeeFXr+OAKH6On4+fWICpQO0S7dyVlUHOLNntb7nYS41Qsj/vJMi27d7vVqgeRLPKlTre2kQ5bWXqy0P9bxzQs9fT4BQfT1DVzg5gW5CZy1nlSc1D1pCdUL+vKnnnhClAORZH4/ivO4uWhOnleiaY09btP3555+iC+eeDnp/AAFC9QCILoFABOZ0q+v81RFyu6YDTLpDHuU8R0Kb5kIEprbqhMF3Fan1L4Has9zcqoLkUS7M74EAAscQIFSP4egqCNwSSLC2A7oSTW2gSKSOoNtNsNavbs5C/rfm98W/x6sm2BJvO3pUR4D3Wh/LQ+1UqXJ0LdZMAQSOJUCoHsvT1RC4ECh/tbBfZ6GXu7lj/up4i9so4kQdA/8ugamtumsVgOs81CqBtECV9nJ3FHiPwOsJEKqvZ+gKCPwvgfJXC4n/9NNPt4J1F9E6G6jKz02YeyBwTaAxUQpA3sZE3erh/wnzl4faRqnycIucyEO9trqvETieAKF6PFNXROArAnlbfvvtt8uxop3rnTcyoTdeydVSAmp3aQ0///yzXf5fWds3hkALtTzueVUTeCuK1RGoie279VCnn14RQODtCBCqb8fWlRH4gkBhwXZEV84qb8z1cayrCdZE9g8//HDjdJ0vTOzNHQKN+Qrcl/6ymlAdgTp5qM3RRHd5qCIIdwztLQJvSIBQfUO4Lo3AfQSqNdnNe/JXVxKp09aE9h9//CEn7z4D+94XBBKrLc5a3ORRTfit4FkdoVqYv41S5aGqh/qFab1B4F0IEKrvgtkfQeBrApO/2rGKpQOUy5cQHDH42dIBrtuV8Pjrr7++7pTvIHAPgcZ647zQeQLwM4vVQvyTh1rljvJQixzYKHWPYX0LgXcgQKi+A2R/AoGHCJQOUP5qYcXr/NXPJlQnpzbvkl3+D1nUz+4j0Kaj6u1+Rq/qeE9HoDYPy7+uzR4IIPCxBAjVj+XvryNwIXCdv5oXZ/JXP4uHtXYkVMs1VNjfoH0JgcZ44fPG0mfxql63ow1fk3tdaS31UF9iZZ9B4HgChOrxTF0RgRcTKJxe/mrF0vPqfBav6ojUCvsL+b/YvKf/YCkAje3PUrJqUhC+/fbbS0SjRVjjW5j/9EMVgE9EgFD9RMbQFASGQOkAeZ/K65sDA65zRN9LwI4nNdGcSE1oeCDwUgITOWhct0mpfNCPqLE6f7c2FMEo9UY6y0ut6nMIvC0BQvVt+bo6Aq8i0CaOqb9a3dI8mz3fQ6jm9RpPapunqgXrgcARBFqI5VltITSbl67D8G9RFaDrXwvUFoDloRbB8EAAgc9LgFD9vLbRMgQuBMqVy9sz5awSrAnVbvJHeVnnWvPa9cuTHW8TT6rBeDSBQuwtwvLW59mcTVYjWCcs/1rROtfrOpOH+uOPP14EqjzUo63qeggcT4BQPZ6pKyLwJgSm/urkrx4lUu96Z7tuArVQfwK5vytn701MevqLVji/MZbHPsH6VuWr8qSWh9ohFR35K8/69EMPgIUIEKoLGUtTEYhAIfjyVxOsCcrC81OD9a7ovO99QnQ+0807z2llg7qJ57XNy1U41M3ceHsvAo21dto39spfbVw3Tufo1cpGJTaf4l0dD2qf6dnc+P777y/XLuXAAwEE1iJAqK5lL61F4JZA4fjZcJXQTHAmQO97Tr5pN/88V50s1c27EGjitFOmqhnZNXlPb8yHyn4AAANJSURBVBH74gMI5GVtLI5oneOGG8MJ1RGgk9s677/55pvLz/p+ntkWaY3xvLWO+v0AQ/qTCBxEgFA9CKTLIPBRBArNd/54nqhu6m0SSYyWy9qzr0ecdqhAN+4EbmIgUUCYfpTl/N3HCJRD2uKpslFFEFqQtdhKtBYNKLe1Z1/3bJHW+C860OJLbvVjhP0cgc9PgFD9/DbSQgQeJdANvfBpnqNEa96ojn7s+fvvv19u9OUCduNO2CZQPRBYhUCLqcZ3aS+N48Z447pFV8/GecK0lJXC+/2ujVKrWFc7EXiYAKH6MB8/RWA5AnNT72bdM2Hqpr2cGTX4EQIttmaMiww8AsuPEViYAKG6sPE0HQEEEEAAAQQQ2JkAobqzdfUNAQQQQAABBBBYmAChurDxNB0BBBBAAAEEENiZAKG6s3X1DQEEEEAAAQQQWJgAobqw8TQdAQQQQAABBBDYmQChurN19Q0BBBBAAAEEEFiYAKG6sPE0HQEEEEAAAQQQ2JkAobqzdfUNAQQQQAABBBBYmAChurDxNB0BBBBAAAEEENiZAKG6s3X1DQEEEEAAAQQQWJgAobqw8TQdAQQQQAABBBDYmQChurN19Q0BBBBAAAEEEFiYAKG6sPE0HQEEEEAAAQQQ2JkAobqzdfUNAQQQQAABBBBYmAChurDxNB0BBBBAAAEEENiZAKG6s3X1DQEEEEAAAQQQWJgAobqw8TQdAQQQQAABBBDYmQChurN19Q0BBBBAAAEEEFiYAKG6sPE0HQEEEEAAAQQQ2JkAobqzdfUNAQQQQAABBBBYmAChurDxNB0BBBBAAAEEENiZAKG6s3X1DQEEEEAAAQQQWJgAobqw8TQdAQQQQAABBBDYmQChurN19Q0BBBBAAAEEEFiYAKG6sPE0HQEEEEAAAQQQ2JkAobqzdfUNAQQQQAABBBBYmAChurDxNB0BBBBAAAEEENiZAKG6s3X1DQEEEEAAAQQQWJgAobqw8TQdAQQQQAABBBDYmQChurN19Q0BBBBAAAEEEFiYAKG6sPE0HQEEEEAAAQQQ2JkAobqzdfUNAQQQQAABBBBYmAChurDxNB0BBBBAAAEEENiZAKG6s3X1DQEEEEAAAQQQWJjA32gYptkkD/hDAAAAAElFTkSuQmCC;" vertex="1" parent="1">
          <mxGeometry x="120" y="600" width="129.69" height="120" as="geometry" />
        </mxCell>
        <mxCell id="7DG72NX_XQv7gAje04wC-21" style="edgeStyle=orthogonalEdgeStyle;rounded=0;orthogonalLoop=1;jettySize=auto;html=1;exitX=0.5;exitY=1;exitDx=0;exitDy=0;entryX=0.5;entryY=0;entryDx=0;entryDy=0;fontSize=18;" edge="1" parent="1" source="7DG72NX_XQv7gAje04wC-17" target="7DG72NX_XQv7gAje04wC-18">
          <mxGeometry relative="1" as="geometry" />
        </mxCell>
        <mxCell id="7DG72NX_XQv7gAje04wC-17" value="训练数据生成：时空匹配、异常值处理、数据正态分布控制" style="rounded=0;whiteSpace=wrap;html=1;fillColor=#e1d5e7;strokeColor=#9673a6;fontSize=16;" vertex="1" parent="1">
          <mxGeometry x="260" y="640" width="470" height="40" as="geometry" />
        </mxCell>
        <mxCell id="7DG72NX_XQv7gAje04wC-18" value="LAI反演模型训练；LAI产品生成、地面验证、应用分析与制图" style="rounded=0;whiteSpace=wrap;html=1;fillColor=#e1d5e7;strokeColor=#9673a6;fontSize=16;" vertex="1" parent="1">
          <mxGeometry x="260" y="700" width="470" height="40" as="geometry" />
        </mxCell>
      </root>
    </mxGraphModel>
  </diagram>
</mxfile>
